#N canvas 275 81 491 491 10;
#X obj 51 23 inlet;
#X obj 51 61 sel 0;
#X obj 179 122 bng 15 250 50 0 empty empty empty 17 7 0 10 -262144
-1 -1;
#X floatatom 19 124 5 0 0 0 - - -, f 5;
#X floatatom 314 193 5 0 0 0 - - -, f 5;
#X floatatom 278 215 5 0 0 0 - - -, f 5;
#X floatatom 384 125 5 0 0 0 - - -, f 5;
#X text 435 146 release;
#X text 369 213 decay;
#X text 332 234 attack;
#X obj 343 43 loadbang;
#X obj 19 240 f;
#X obj 59 243 del;
#X obj 59 312 pack f f, f 9;
#X obj 59 265 f, f 7;
#X msg 19 312 1 \$1;
#X obj 117 384 line~;
#X obj 179 142 t b b;
#X msg 206 164 stop;
#X msg 179 286 0;
#X obj 179 308 pack, f 6;
#X obj 117 434 outlet~;
#X floatatom 212 290 5 0 0 0 - - -, f 5;
#X floatatom 110 292 5 0 0 0 - - -, f 5;
#X floatatom 34 192 5 0 0 0 - - -, f 5;
#X obj 278 89 unpack f f f f, f 18;
#X floatatom 349 148 5 0 0 0 - - -, f 5;
#X text 400 190 release;
#X obj 117 406 *~, f 8;
#X msg 343 65 30 30 95 100;
#X obj 349 167 dbtorms;
#X obj 19 143 t b b f, f 21;
#X floatatom 97 207 5 0 0 0 - - -, f 5;
#X obj 34 170 r \$0-a;
#X obj 97 185 r \$0-s;
#X obj 110 270 r \$0-d;
#X obj 212 268 r \$0-r;
#X obj 278 234 s \$0-a;
#X obj 314 212 s \$0-d;
#X obj 349 189 s \$0-s;
#X obj 384 145 s \$0-r;
#X obj 220 15 r adsr-\$1;
#X connect 0 0 1 0;
#X connect 1 0 2 0;
#X connect 1 1 3 0;
#X connect 2 0 17 0;
#X connect 3 0 31 0;
#X connect 4 0 38 0;
#X connect 5 0 37 0;
#X connect 6 0 40 0;
#X connect 10 0 29 0;
#X connect 11 0 15 0;
#X connect 12 0 14 0;
#X connect 13 0 16 0;
#X connect 14 0 13 0;
#X connect 15 0 16 0;
#X connect 16 0 28 0;
#X connect 17 0 19 0;
#X connect 17 1 18 0;
#X connect 18 0 12 0;
#X connect 19 0 20 0;
#X connect 20 0 16 0;
#X connect 22 0 20 1;
#X connect 23 0 13 1;
#X connect 24 0 11 1;
#X connect 24 0 12 1;
#X connect 25 0 5 0;
#X connect 25 1 4 0;
#X connect 25 2 26 0;
#X connect 25 3 6 0;
#X connect 26 0 30 0;
#X connect 28 0 21 0;
#X connect 29 0 25 0;
#X connect 30 0 39 0;
#X connect 31 0 11 0;
#X connect 31 1 12 0;
#X connect 31 2 28 1;
#X connect 32 0 14 1;
#X connect 33 0 24 0;
#X connect 34 0 32 0;
#X connect 35 0 23 0;
#X connect 36 0 22 0;
#X connect 41 0 25 0;
