#N canvas 999 174 569 330 10;
#X floatatom 391 74 5 0 0 0 - - -, f 5;
#X obj 391 93 s hr;
#X msg 391 52 1;
#X obj 382 19 loadbang;
#X floatatom 434 75 5 0 0 0 - - -, f 5;
#X msg 434 53 10;
#X obj 434 94 s index-Max;
#X floatatom 283 200 5 0 0 0 - - -, f 5;
#X floatatom 324 199 5 0 0 0 - - -, f 5;
#X floatatom 383 196 5 0 0 0 - - -, f 5;
#X floatatom 437 198 5 0 0 0 - - -, f 5;
#X obj 324 218 t b f;
#X obj 437 217 t b f;
#X obj 333 262 pack f f f f;
#X obj 377 221 t b f;
#X obj 333 284 s adsr-index;
#X floatatom 64 199 5 0 0 0 - - -, f 5;
#X floatatom 118 199 5 0 0 0 - - -, f 5;
#X floatatom 177 196 5 0 0 0 - - -, f 5;
#X floatatom 231 198 5 0 0 0 - - -, f 5;
#X obj 118 218 t b f;
#X obj 231 217 t b f;
#X obj 125 254 pack f f f f;
#X obj 171 221 t b f;
#X obj 125 276 s adsr-amp;
#X obj 458 168 bng 15 250 50 0 empty empty empty 17 7 0 10 -262144
-1 -1;
#X obj 18 163 bng 15 250 50 0 empty empty empty 17 7 0 10 -262144 -1
-1;
#X msg 315 137 750 379 85 306;
#X obj 315 159 unpack f f f f;
#X obj 103 159 unpack f f f f;
#X msg 103 137 29 113 96 449;
#X text 37 162 refresh;
#X obj 218 91 bng 15 250 50 0 empty empty empty 17 7 0 10 -262144 -1
-1;
#X text 242 90 PRESET 1;
#X obj 218 69 loadbang;
#X text 477 166 refresh;
#X obj 41 38 clone voice 16;
#N canvas 0 81 450 300 output 0;
#X obj 81 17 catch~ sum;
#X obj 24 92 dac~;
#X obj 81 39 /~ 8;
#X obj 91 71 env~;
#X obj 90 124 vu 15 120 empty empty -1 -8 0 10 -66577 -1 1 0;
#X obj 91 93 - 97;
#X connect 0 0 2 0;
#X connect 2 0 1 0;
#X connect 2 0 1 1;
#X connect 2 0 3 0;
#X connect 3 0 5 0;
#X connect 5 0 4 0;
#X connect 5 0 4 1;
#X restore 43 64 pd output;
#N canvas 0 81 450 300 midi 0;
#X obj 222 34 notein, f 15;
#X floatatom 225 60 5 0 0 0 - - -, f 5;
#X floatatom 268 60 5 0 0 0 - - -, f 5;
#X obj 268 79 / 127;
#X obj 232 117 pack, f 7;
#X obj 233 215 pack f f f;
#X floatatom 226 172 5 0 0 0 - - -, f 5;
#X msg 232 237 \; v-\$1 \$2 \$3;
#X obj 226 191 - 1;
#X obj 226 150 poly 16 1, f 10;
#N canvas 0 81 422 392 automation 0;
#X obj 75 63 tgl 15 0 empty empty empty 17 7 0 10 -262144 -1 -1 0 1
;
#X floatatom 117 64 5 0 0 0 - - -, f 5;
#X obj 75 92 metro 400;
#X obj 74 124 f;
#X obj 70 234 makenote;
#X floatatom 125 211 5 0 0 0 - - -, f 5;
#X floatatom 103 190 5 0 0 0 - - -, f 5;
#X floatatom 70 158 5 0 0 0 - - -, f 5;
#X floatatom 68 262 5 0 0 0 - - -, f 5;
#X floatatom 124 262 5 0 0 0 - - -, f 5;
#X obj 68 281 pack;
#X obj 132 147 sel 0;
#X obj 63 16 inlet;
#X obj 135 21 inlet;
#X obj 212 25 inlet;
#X obj 267 30 inlet;
#X obj 68 303 outlet;
#X connect 0 0 2 0;
#X connect 1 0 2 1;
#X connect 2 0 3 0;
#X connect 3 0 7 0;
#X connect 4 0 8 0;
#X connect 4 1 9 0;
#X connect 5 0 4 2;
#X connect 6 0 4 1;
#X connect 7 0 4 0;
#X connect 8 0 10 0;
#X connect 9 0 10 1;
#X connect 10 0 16 0;
#X connect 11 1 6 0;
#X connect 12 0 0 0;
#X connect 13 0 1 0;
#X connect 14 0 3 1;
#X connect 15 0 11 0;
#X restore 115 108 pd automation;
#X obj 103 59 tgl 15 0 empty empty empty 17 7 0 10 -262144 -1 -1 0
1;
#X floatatom 135 58 5 0 0 0 - - -, f 5;
#X text 139 39 speed;
#X text 84 38 on/off;
#X text 92 17 repeater:;
#X connect 0 0 1 0;
#X connect 0 1 2 0;
#X connect 1 0 4 0;
#X connect 1 0 10 2;
#X connect 2 0 3 0;
#X connect 3 0 4 1;
#X connect 3 0 10 3;
#X connect 4 0 9 0;
#X connect 5 0 7 0;
#X connect 6 0 8 0;
#X connect 8 0 5 0;
#X connect 9 0 6 0;
#X connect 9 1 5 1;
#X connect 9 2 5 2;
#X connect 10 0 9 0;
#X connect 11 0 10 0;
#X connect 12 0 10 1;
#X restore 41 15 pd midi;
#X connect 0 0 1 0;
#X connect 2 0 0 0;
#X connect 3 0 2 0;
#X connect 3 0 5 0;
#X connect 4 0 6 0;
#X connect 5 0 4 0;
#X connect 7 0 13 0;
#X connect 8 0 11 0;
#X connect 9 0 14 0;
#X connect 10 0 12 0;
#X connect 11 0 13 0;
#X connect 11 1 13 1;
#X connect 12 0 13 0;
#X connect 12 1 13 3;
#X connect 13 0 15 0;
#X connect 14 0 13 0;
#X connect 14 1 13 2;
#X connect 16 0 22 0;
#X connect 17 0 20 0;
#X connect 18 0 23 0;
#X connect 19 0 21 0;
#X connect 20 0 22 0;
#X connect 20 1 22 1;
#X connect 21 0 22 0;
#X connect 21 1 22 3;
#X connect 22 0 24 0;
#X connect 23 0 22 0;
#X connect 23 1 22 2;
#X connect 25 0 7 0;
#X connect 25 0 8 0;
#X connect 25 0 9 0;
#X connect 25 0 10 0;
#X connect 26 0 16 0;
#X connect 26 0 17 0;
#X connect 26 0 18 0;
#X connect 26 0 19 0;
#X connect 27 0 28 0;
#X connect 28 0 7 0;
#X connect 28 1 8 0;
#X connect 28 2 9 0;
#X connect 28 3 10 0;
#X connect 29 0 16 0;
#X connect 29 1 17 0;
#X connect 29 2 18 0;
#X connect 29 3 19 0;
#X connect 30 0 29 0;
#X connect 32 0 27 0;
#X connect 32 0 30 0;
#X connect 34 0 32 0;
