#N canvas 492 452 587 518 10;
#X obj 90 284 osc~;
#X floatatom 90 264 5 0 0 0 - - -, f 5;
#X obj 150 403 osc~;
#X obj 15 357 +~;
#X floatatom 15 101 5 0 0 0 - - -, f 5;
#X obj 117 333 *~;
#X text 156 389 /;
#X text 164 379 Frequency;
#X floatatom 90 104 5 0 0 0 - - -, f 5;
#X obj 90 144 t b f;
#X obj 90 122 line;
#X text 130 264 mf;
#X text 56 101 cf;
#X obj 90 81 r hr;
#X text 132 105 harmonicity ratio;
#X obj 90 169 *;
#X obj 150 458 throw~ sum;
#X obj 15 60 mtof;
#X obj 15 29 unpack, f 55;
#X floatatom 342 53 5 0 0 0 - - -, f 5;
#X obj 150 428 *~;
#X obj 197 236 *~;
#X obj 212 205 *~ 10;
#X obj 239 165 r index-Max;
#X floatatom 239 187 5 0 0 0 - - -, f 5;
#X obj 15 7 r v-\$1;
#X obj 342 294 adsr~ amp;
#X obj 217 138 adsr~ index;
#X connect 0 0 5 0;
#X connect 1 0 0 0;
#X connect 2 0 20 0;
#X connect 3 0 2 0;
#X connect 4 0 3 0;
#X connect 4 0 15 0;
#X connect 5 0 3 1;
#X connect 8 0 10 0;
#X connect 9 0 15 0;
#X connect 9 1 15 1;
#X connect 10 0 9 0;
#X connect 13 0 8 0;
#X connect 15 0 1 0;
#X connect 15 0 21 0;
#X connect 17 0 4 0;
#X connect 18 0 17 0;
#X connect 18 1 19 0;
#X connect 19 0 26 0;
#X connect 19 0 27 0;
#X connect 20 0 16 0;
#X connect 21 0 5 1;
#X connect 22 0 21 1;
#X connect 23 0 24 0;
#X connect 24 0 22 1;
#X connect 25 0 18 0;
#X connect 26 0 20 1;
#X connect 27 0 22 0;
