#N canvas 227 22 734 474 10;
#N canvas 0 22 450 278 (subpatch) 0;
#X array rabbit 8 float 3;
#A 0 0.9 0.8 0.7 0.6 0.5 0.4 0.3 0.2;
#X coords 0 1 8 -1 200 140 1 0 0;
#X restore 375 56 graph;
#X floatatom 36 164 5 0 0 0 - - -, f 5;
#X floatatom 36 205 5 0 0 0 - - -, f 5;
#X floatatom 165 203 5 0 0 0 - - -, f 5;
#X floatatom 258 202 5 0 0 0 - - -, f 5;
#X obj 165 150 unpack;
#X text 265 186 index;
#X text 174 187 value;
#X text 21 55 Arrays are ways of storing and reading float numbers
in memory:;
#X text 60 279 messages to array:;
#X obj 36 183 tabread rabbit;
#X obj 165 222 tabwrite rabbit;
#X msg 63 401 \; rabbit sinesum 256 1;
#X msg 165 127 -0.3 4;
#N canvas 0 22 412 260 frequency 0;
#X obj 14 55 f;
#X obj 44 56 + 1, f 4;
#X obj 14 77 % 10;
#X obj 14 10 tgl 15 0 empty empty empty 17 7 0 10 -262144 -1 -1 0 1
;
#X floatatom 14 99 5 0 0 0 - - -, f 5;
#X obj 14 33 metro 400;
#X floatatom 14 140 5 0 0 0 - - -, f 5;
#X obj 14 181 osc~;
#X obj 14 225 dac~;
#X obj 14 159 mtof;
#X obj 105 156 tgl 15 0 empty empty empty 17 7 0 10 -262144 -1 -1 0
1;
#X obj 105 176 * 0.3;
#X obj 14 203 *~;
#N canvas 0 22 450 278 (subpatch) 0;
#X array lion 10 float 3;
#A 0 60 61 62 64 65 66 68 69 70 72;
#X coords 0 72 10 60 200 140 1 0 0;
#X restore 161 75 graph;
#X msg 160 25 \; lion 0 60 61 62 64 65 66 68 69 70 72;
#X obj 14 118 tabread lion;
#X connect 0 0 1 0;
#X connect 0 0 2 0;
#X connect 1 0 0 1;
#X connect 2 0 4 0;
#X connect 3 0 5 0;
#X connect 4 0 15 0;
#X connect 5 0 0 0;
#X connect 6 0 9 0;
#X connect 7 0 12 0;
#X connect 9 0 7 0;
#X connect 10 0 11 0;
#X connect 11 0 12 1;
#X connect 12 0 8 0;
#X connect 12 0 8 1;
#X connect 15 0 6 0;
#X restore 430 357 pd frequency;
#X msg 63 331 \; rabbit const 0;
#X text 429 338 automated reading;
#X text 377 197 0;
#X msg 63 297 \; rabbit resize 8;
#X msg 63 366 \; rabbit 0 0.9 0.8 0.7 0.6 0.5 0.4 0.3 0.2;
#X text 162 91 write the -0.3 value into index 4, f 20;
#X text 33 133 read array values, f 11;
#X text 165 308 resize to size 8;
#X text 376 223 array indexes start at 0 So size of 8 gives you indexes
from 0 to 7, f 35;
#X text 559 197 7;
#X connect 1 0 10 0;
#X connect 3 0 11 0;
#X connect 4 0 11 1;
#X connect 5 0 3 0;
#X connect 5 1 4 0;
#X connect 10 0 2 0;
#X connect 13 0 5 0;
