#N canvas 519 94 491 507 10;
#X obj 51 23 inlet;
#X obj 51 61 sel 0;
#X obj 179 122 bng 15 250 50 0 empty empty empty 17 7 0 10 -262144
-1 -1;
#X floatatom 19 124 5 0 0 0 - - -, f 5;
#X floatatom 314 193 5 0 0 0 - - -, f 5;
#X floatatom 278 215 5 0 0 0 - - -, f 5;
#X floatatom 384 125 5 0 0 0 - - -, f 5;
#X text 408 148 release;
#X text 342 215 decay;
#X text 305 236 attack;
#X obj 278 66 inlet;
#X obj 343 43 loadbang;
#X obj 278 234 s a;
#X obj 314 212 s d;
#X obj 384 145 s r;
#X obj 34 170 r a;
#X obj 19 240 f;
#X obj 59 243 del;
#X obj 59 312 pack f f, f 9;
#X obj 110 270 r d;
#X obj 59 265 f, f 7;
#X msg 19 312 1 \$1;
#X obj 117 384 line~;
#X obj 179 142 t b b;
#X msg 206 164 stop;
#X msg 179 286 0;
#X obj 179 308 pack, f 6;
#X obj 212 268 r r;
#X obj 117 434 outlet~;
#X floatatom 212 290 5 0 0 0 - - -, f 5;
#X floatatom 110 292 5 0 0 0 - - -, f 5;
#X floatatom 34 192 5 0 0 0 - - -, f 5;
#X obj 278 89 unpack f f f f, f 18;
#X floatatom 349 148 5 0 0 0 - - -, f 5;
#X text 373 192 release;
#X obj 349 189 s s;
#X obj 117 406 *~, f 8;
#X msg 343 65 30 30 95 100;
#X obj 349 167 dbtorms;
#X obj 19 143 t b b f, f 21;
#X floatatom 97 207 5 0 0 0 - - -, f 5;
#X obj 97 185 r s;
#X connect 0 0 1 0;
#X connect 1 0 2 0;
#X connect 1 1 3 0;
#X connect 2 0 23 0;
#X connect 3 0 39 0;
#X connect 4 0 13 0;
#X connect 5 0 12 0;
#X connect 6 0 14 0;
#X connect 10 0 32 0;
#X connect 11 0 37 0;
#X connect 15 0 31 0;
#X connect 16 0 21 0;
#X connect 17 0 20 0;
#X connect 18 0 22 0;
#X connect 19 0 30 0;
#X connect 20 0 18 0;
#X connect 21 0 22 0;
#X connect 22 0 36 0;
#X connect 23 0 25 0;
#X connect 23 1 24 0;
#X connect 24 0 17 0;
#X connect 25 0 26 0;
#X connect 26 0 22 0;
#X connect 27 0 29 0;
#X connect 29 0 26 1;
#X connect 30 0 18 1;
#X connect 31 0 16 1;
#X connect 31 0 17 1;
#X connect 32 0 5 0;
#X connect 32 1 4 0;
#X connect 32 2 33 0;
#X connect 32 3 6 0;
#X connect 33 0 38 0;
#X connect 36 0 28 0;
#X connect 37 0 32 0;
#X connect 38 0 35 0;
#X connect 39 0 16 0;
#X connect 39 1 17 0;
#X connect 39 2 36 1;
#X connect 40 0 20 1;
#X connect 41 0 40 0;
