#N canvas 67 89 474 450 10;
#X obj 61 260 osc~ 440;
#X floatatom 95 198 5 0 0 0 - - -, f 5;
#X obj 53 321 dac~;
#X msg 101 24 55;
#X msg 110 46 110;
#X msg 123 69 220;
#X msg 132 91 440;
#X msg 141 112 880;
#X text 184 21 <- Try these different Frequencies in Hz \, you'll notice
they are all "As" in different octaves. Frequency behaves logarithmically
\, which means that to get an octave up or down you need to double
or half the original frequency., f 42;
#X obj 173 189 ftom, f 5;
#X floatatom 173 289 5 0 0 0 - - -, f 5;
#X text 214 192 frequency to midi converter;
#X text 213 288 <- you'll notice that the difference between octaves
is now 12 half steps in midi numbers., f 32;
#X text 219 216 we use midi numbers to represent pitch \, which behaves
linearly. As a reference \, middle C is always 60 in the midi scale.
, f 32;
#X obj 173 378 mtof;
#X floatatom 173 400 5 0 0 0 - - -, f 5;
#X text 209 379 <- midi to frequency converter;
#X msg 149 136 1760;
#X connect 0 0 2 0;
#X connect 0 0 2 1;
#X connect 1 0 0 0;
#X connect 1 0 9 0;
#X connect 3 0 1 0;
#X connect 4 0 1 0;
#X connect 5 0 1 0;
#X connect 6 0 1 0;
#X connect 7 0 1 0;
#X connect 9 0 10 0;
#X connect 10 0 14 0;
#X connect 14 0 15 0;
#X connect 17 0 1 0;
