#N canvas 719 113 1157 963 10;
#X obj 120 9 notein;
#X floatatom 109 40 5 0 0 0 - - -, f 5;
#X floatatom 147 41 5 0 0 0 - - -, f 5;
#X text 71 26 pitch;
#X text 167 26 velocity;
#X obj 9 272 additive;
#X msg 253 27 \; h1 1 \; h2 0.9 \; h3 0.8 \; h4 0.7 \; h5 0.6 \; h6
0.5 \; h7 0.4 \; h8 0.3 \;;
#X msg 316 27 \; h1 0.3 \; h2 0.4 \; h3 0.5 \; h4 0.6 \; h5 0.7 \;
h6 0.8 \; h7 0.9 \; h8 1 \;;
#X obj 239 445 dac~;
#X obj 26 337 *~;
#X obj 77 271 / 127;
#X floatatom 77 293 5 0 0 0 - - -, f 5;
#X obj 77 315 pack f 30;
#X obj 77 338 line~;
#X obj 120 67 pack;
#X floatatom 95 123 5 0 0 0 - - -, f 5;
#X floatatom 141 122 5 0 0 0 - - -, f 5;
#X floatatom 189 122 5 0 0 0 - - -, f 5;
#X obj 144 270 additive;
#X obj 161 335 *~;
#X obj 212 269 / 127;
#X floatatom 212 291 5 0 0 0 - - -, f 5;
#X obj 212 313 pack f 30;
#X obj 212 336 line~;
#X obj 278 269 additive;
#X obj 296 333 *~;
#X obj 347 267 / 127;
#X floatatom 347 290 5 0 0 0 - - -, f 5;
#X obj 347 311 pack f 30;
#X obj 347 335 line~;
#X obj 413 267 additive;
#X obj 431 331 *~;
#X obj 482 265 / 127;
#X floatatom 482 288 5 0 0 0 - - -, f 5;
#X obj 482 309 pack f 30;
#X obj 482 333 line~;
#X obj 120 88 poly 4 1;
#X obj 115 148 pack f f f;
#X obj 115 170 route 1 2 3 4, f 58;
#X text 50 105 voice no.;
#X obj 35 225 unpack;
#X floatatom 35 250 5 0 0 0 - - -, f 5;
#X floatatom 77 250 5 0 0 0 - - -, f 5;
#X obj 163 217 unpack;
#X floatatom 163 242 5 0 0 0 - - -, f 5;
#X floatatom 199 242 5 0 0 0 - - -, f 5;
#X obj 303 219 unpack;
#X floatatom 303 244 5 0 0 0 - - -, f 5;
#X floatatom 339 244 5 0 0 0 - - -, f 5;
#X obj 431 217 unpack;
#X floatatom 431 242 5 0 0 0 - - -, f 5;
#X floatatom 467 242 5 0 0 0 - - -, f 5;
#X obj 248 396 +~;
#X obj 248 416 /~ 4;
#X msg 377 27 \; h1 1 \; h2 0 \; h3 1 \; h4 0 \; h5 1 \; h6 0 \; h7
1 \; h8 0 \;;
#X msg 426 27 \; h1 0 \; h2 1 \; h3 1 \; h4 1 \; h5 1 \; h6 1 \; h7
1 \; h8 1 \;;
#X connect 0 0 1 0;
#X connect 0 1 2 0;
#X connect 1 0 14 0;
#X connect 2 0 14 1;
#X connect 5 0 9 0;
#X connect 9 0 52 0;
#X connect 10 0 11 0;
#X connect 11 0 12 0;
#X connect 12 0 13 0;
#X connect 13 0 9 1;
#X connect 14 0 36 0;
#X connect 15 0 37 0;
#X connect 16 0 37 1;
#X connect 17 0 37 2;
#X connect 18 0 19 0;
#X connect 19 0 52 0;
#X connect 20 0 21 0;
#X connect 21 0 22 0;
#X connect 22 0 23 0;
#X connect 23 0 19 1;
#X connect 24 0 25 0;
#X connect 25 0 52 0;
#X connect 26 0 27 0;
#X connect 27 0 28 0;
#X connect 28 0 29 0;
#X connect 29 0 25 1;
#X connect 30 0 31 0;
#X connect 31 0 52 1;
#X connect 32 0 33 0;
#X connect 33 0 34 0;
#X connect 34 0 35 0;
#X connect 35 0 31 1;
#X connect 36 0 15 0;
#X connect 36 1 16 0;
#X connect 36 2 17 0;
#X connect 37 0 38 0;
#X connect 38 0 40 0;
#X connect 38 1 43 0;
#X connect 38 2 46 0;
#X connect 38 3 49 0;
#X connect 40 0 41 0;
#X connect 40 1 42 0;
#X connect 41 0 5 0;
#X connect 42 0 10 0;
#X connect 43 0 44 0;
#X connect 43 1 45 0;
#X connect 44 0 18 0;
#X connect 45 0 20 0;
#X connect 46 0 47 0;
#X connect 46 1 48 0;
#X connect 47 0 24 0;
#X connect 48 0 26 0;
#X connect 49 0 50 0;
#X connect 49 1 51 0;
#X connect 50 0 30 0;
#X connect 51 0 32 0;
#X connect 52 0 53 0;
#X connect 53 0 8 0;
#X connect 53 0 8 1;
