#N canvas 107 122 421 396 10;
#N canvas 369 146 986 877 file-loader 0;
#N canvas 0 50 450 250 (subpatch) 0;
#X array mysamplearray 405054 float 2;
#X coords 0 1 405054 -1 200 140 1;
#X restore 261 233 graph;
#X obj 29 167 soundfiler;
#X floatatom 29 200 10 0 0 0 - - -, f 10;
#X text 94 200 samples long;
#X text 96 166 load .wav and .aiff files;
#X floatatom 91 270 5 0 0 0 - - -, f 5;
#X obj 91 250 samplerate~;
#X obj 29 219 t f f b;
#X floatatom 52 270 5 0 0 0 - - -, f 5;
#X obj 68 323 /;
#X floatatom 68 342 5 0 0 0 - - -, f 5;
#X text 125 341 duration in msec;
#X text 94 382 duration in samples;
#X floatatom 29 383 10 0 0 0 - - -, f 10;
#X obj 91 288 / 1000;
#X obj 29 79 symbol;
#X symbolatom 29 102 10 0 0 0 - - -, f 10;
#X text 128 46 LOAD A SAMPLE;
#X obj 29 401 s dur-s;
#X obj 68 360 s dur-ms;
#X msg 29 126 read -resize ./samples/\$1.wav mysamplearray;
#X obj 31 29 inlet;
#X connect 1 0 2 0;
#X connect 2 0 7 0;
#X connect 5 0 14 0;
#X connect 6 0 5 0;
#X connect 7 0 13 0;
#X connect 7 1 8 0;
#X connect 7 2 6 0;
#X connect 8 0 9 0;
#X connect 9 0 10 0;
#X connect 10 0 19 0;
#X connect 13 0 18 0;
#X connect 14 0 9 1;
#X connect 15 0 16 0;
#X connect 16 0 20 0;
#X connect 20 0 1 0;
#X connect 21 0 15 0;
#X restore 35 33 pd file-loader;
#N canvas 95 546 464 356 midi-in 1;
#X obj 21 18 notein;
#X obj 21 44 pack;
#X obj 21 64 poly 4 1;
#X obj 21 110 pack f f f;
#X msg 21 130 \; voice-\$1 \$2 \$3;
#X floatatom 96 51 5 0 0 0 - - -, f 5;
#X obj 21 83 - 1;
#X floatatom 106 77 5 0 0 0 - - -, f 5;
#X connect 0 0 1 0;
#X connect 0 0 7 0;
#X connect 0 1 1 1;
#X connect 0 1 5 0;
#X connect 1 0 2 0;
#X connect 2 0 6 0;
#X connect 2 1 3 1;
#X connect 2 2 3 2;
#X connect 3 0 4 0;
#X connect 6 0 3 0;
#X restore 35 56 pd midi-in;
#X obj 47 118 catch~ out;
#X obj 47 163 dac~;
#X obj 47 137 /~ 4;
#X msg 147 2 fl-g5;
#X msg 156 26 gtr-57;
#X obj 35 86 clone samplevoice 4;
#X connect 2 0 4 0;
#X connect 4 0 3 0;
#X connect 4 0 3 1;
#X connect 5 0 0 0;
#X connect 6 0 0 0;
