#N canvas 624 108 1163 891 10;
#X text 23 30 PLAY A SAMPLE;
#X obj 46 259 tabread4~ mysamplearray;
#X obj 46 165 line~;
#X obj 156 74 r dur-ms;
#X obj 90 200 r dur-s;
#X obj 137 103 f;
#X msg 57 98 0;
#X msg 24 99 1;
#X obj 36 133 pack;
#X text 191 257 input: 1 to size-2;
#X obj 90 219 - 3;
#X obj 46 209 *~;
#X obj 46 229 +~ 1;
#X obj 35 74 t b b f b, f 14;
#X floatatom 137 122 5 0 0 0 - - -, f 5;
#X floatatom 101 124 5 0 0 0 - - -, f 5;
#X obj 107 148 *;
#X floatatom 107 167 5 0 0 0 - - -, f 5;
#X floatatom 36 53 5 0 0 0 - - -, f 5;
#X floatatom 273 136 0 0 0 0 - - -;
#X obj 273 180 exp;
#X floatatom 273 205 6 0 0 0 - - -, f 6;
#X obj 273 158 * 0.05776;
#X text 307 135 <-- transposition;
#X text 350 148 (halftones);
#X text 336 199 speed;
#X text 335 213 change;
#X obj 275 85 - 77;
#X obj 306 16 r voice-\$1;
#X obj 306 36 unpack;
#X obj 490 62 sel 0;
#X msg 476 129 0 100;
#X obj 499 197 line~;
#X obj 211 356 *~, f 4;
#X obj 533 130 / 127;
#X msg 533 149 \$1 100;
#X obj 211 375 throw~ out;
#X floatatom 541 100 5 0 0 0 - - -, f 5;
#X obj 276 112 * -1;
#X connect 1 0 33 0;
#X connect 2 0 11 0;
#X connect 3 0 5 1;
#X connect 4 0 10 0;
#X connect 5 0 14 0;
#X connect 6 0 2 0;
#X connect 7 0 8 0;
#X connect 8 0 2 0;
#X connect 10 0 11 1;
#X connect 11 0 12 0;
#X connect 12 0 1 0;
#X connect 13 0 7 0;
#X connect 13 1 6 0;
#X connect 13 2 15 0;
#X connect 13 3 5 0;
#X connect 14 0 16 1;
#X connect 15 0 16 0;
#X connect 16 0 8 1;
#X connect 16 0 17 0;
#X connect 18 0 13 0;
#X connect 19 0 22 0;
#X connect 20 0 21 0;
#X connect 21 0 18 0;
#X connect 22 0 20 0;
#X connect 27 0 38 0;
#X connect 28 0 29 0;
#X connect 29 0 27 0;
#X connect 29 1 30 0;
#X connect 30 0 31 0;
#X connect 30 1 34 0;
#X connect 30 1 37 0;
#X connect 31 0 32 0;
#X connect 32 0 33 1;
#X connect 33 0 36 0;
#X connect 34 0 35 0;
#X connect 35 0 32 0;
#X connect 38 0 19 0;
