#N canvas 161 112 1652 953 10;
#N canvas 0 50 450 250 (subpatch) 0;
#X array mysamplearray 45505 float 2;
#X coords 0 1 45505 -1 200 140 1;
#X restore 674 14 graph;
#X obj 22 151 soundfiler;
#X floatatom 22 184 10 0 0 0 - - -, f 10;
#X text 87 184 samples long;
#X text 89 150 load .wav and .aiff files;
#X floatatom 84 254 5 0 0 0 - - -, f 5;
#X obj 84 234 samplerate~;
#X obj 22 203 t f f b;
#X floatatom 45 254 5 0 0 0 - - -, f 5;
#X obj 61 307 /;
#X floatatom 61 326 5 0 0 0 - - -, f 5;
#X text 118 325 duration in msec;
#X text 87 366 duration in samples;
#X floatatom 22 367 10 0 0 0 - - -, f 10;
#X obj 84 272 / 1000;
#X msg 26 8 fl-g5;
#X msg 22 110 read -resize ./samples/\$1.wav mysamplearray;
#X obj 22 63 symbol;
#X symbolatom 22 86 10 0 0 0 - - -, f 10;
#X msg 35 32 gtr-57;
#X text 121 30 LOAD A SAMPLE;
#X text 360 14 PLAY A SAMPLE;
#X obj 377 288 tabread4~ mysamplearray;
#X obj 377 178 line~;
#X obj 367 332 dac~;
#X obj 22 385 s dur-s;
#X obj 61 344 s dur-ms;
#X obj 493 58 r dur-ms;
#X obj 421 213 r dur-s;
#X obj 468 116 f;
#X msg 388 111 0;
#X msg 355 112 1;
#X obj 367 146 pack;
#X text 522 286 input: 1 to size-2;
#X obj 421 232 - 3;
#X obj 377 222 *~;
#X obj 377 242 +~ 1;
#X obj 372 58 t b b f b, f 14;
#X floatatom 468 135 5 0 0 0 - - -, f 5;
#X floatatom 432 137 5 0 0 0 - - -, f 5;
#X obj 438 161 *;
#X floatatom 438 180 5 0 0 0 - - -, f 5;
#X floatatom 373 37 5 0 0 0 - - -, f 5;
#X connect 1 0 2 0;
#X connect 2 0 7 0;
#X connect 5 0 14 0;
#X connect 6 0 5 0;
#X connect 7 0 13 0;
#X connect 7 1 8 0;
#X connect 7 2 6 0;
#X connect 8 0 9 0;
#X connect 9 0 10 0;
#X connect 10 0 26 0;
#X connect 13 0 25 0;
#X connect 14 0 9 1;
#X connect 15 0 17 0;
#X connect 16 0 1 0;
#X connect 17 0 18 0;
#X connect 18 0 16 0;
#X connect 19 0 17 0;
#X connect 22 0 24 0;
#X connect 22 0 24 1;
#X connect 23 0 35 0;
#X connect 27 0 29 1;
#X connect 28 0 34 0;
#X connect 29 0 38 0;
#X connect 30 0 23 0;
#X connect 31 0 32 0;
#X connect 32 0 23 0;
#X connect 34 0 35 1;
#X connect 35 0 36 0;
#X connect 36 0 22 0;
#X connect 37 0 31 0;
#X connect 37 1 30 0;
#X connect 37 2 39 0;
#X connect 37 3 29 0;
#X connect 38 0 40 1;
#X connect 39 0 40 0;
#X connect 40 0 32 1;
#X connect 40 0 41 0;
#X connect 42 0 37 0;
