#N canvas 73 35 789 606 10;
#X obj 118 88 osc~ 440;
#X floatatom 70 37 5 0 0 0 - - -, f 5;
#X text 110 38 Frequency;
#X floatatom 198 41 5 0 0 0 - - -, f 5;
#X text 238 42 Phase;
#X obj 118 163 *~;
#X floatatom 141 127 5 0 0 0 - - -, f 5;
#X text 180 126 amplitude;
#X obj 108 222 dac~;
#X text 158 185 x(n) = a.sin(f.n+ø);
#X text 164 213 a = amplitude;
#X text 164 227 f = frequency;
#X text 164 240 ø = phase;
#X connect 0 0 5 0;
#X connect 1 0 0 0;
#X connect 3 0 0 1;
#X connect 5 0 8 0;
#X connect 5 0 8 1;
#X connect 6 0 5 1;
