#N canvas 67 89 450 300 10;
#X floatatom 220 189 5 0 0 0 - - -, f 5;
#X obj 220 208 s f;
#X text 32 23 Create a patch that implements a fourier series with
10 harmonics \, based on a fundamental frequency "f"., f 107;
#X floatatom 266 189 5 0 0 0 - - -, f 5;
#X obj 266 208 s ramp;
#X obj 369 146 bng 15 250 50 0 empty empty empty 17 7 0 10 -262144
-1 -1;
#X obj 369 210 s down;
#X floatatom 317 189 5 0 0 0 - - -, f 5;
#X obj 317 208 s d;
#X msg 220 144 200 2000 300;
#X obj 220 166 unpack f f f, f 16;
#X obj 682 245 r down;
#X obj 682 269 bng 15 250 50 0 empty empty empty 17 7 0 10 -262144
-1 -1;
#X text 38 151 defaults are given here:;
#X text 32 48 Create an amplitude envelope for each harmonic that ramps
up over "ramp" ms \, and then down over "ramp" ms. this whole mechanism
is controlled by a single bang ("down")., f 108;
#X text 32 88 Create a mechanism whereby this bang labeled "down" \,
activates the amplitude envelope for harmonic 10 \, and then the envelope
for each succesive harmonic (9 \, 8 \, 7 \, etc.) starts "d" miliseconds
later. This way \, we should hear harmonics show up gradually one after
the other from top (harmonic 10) to bottom (fundamental)., f 108;
#X obj 682 291 t b b;
#X connect 0 0 1 0;
#X connect 3 0 4 0;
#X connect 5 0 6 0;
#X connect 7 0 8 0;
#X connect 9 0 10 0;
#X connect 10 0 0 0;
#X connect 10 1 3 0;
#X connect 10 2 7 0;
#X connect 11 0 12 0;
#X connect 12 0 16 0;
