#N canvas 161 267 1197 681 10;
#X floatatom 54 26 5 0 0 0 - - -, f 5;
#X obj 75 71 +;
#X floatatom 75 99 5 0 0 0 - - -, f 5;
#X floatatom 98 28 5 0 0 0 - - -, f 5;
#X text 102 65 <- cold inlet, f 9;
#X text 188 44 cold inlets only store values, f 18;
#X text -4 66 hot inlet ->;
#X text 189 78 hot inlets execute the program with stored values,
f 19;
#X floatatom 77 194 5 0 0 0 - - -, f 5;
#X obj 94 224 + 2;
#X floatatom 94 273 5 0 0 0 - - -, f 5;
#X floatatom 120 195 5 0 0 0 - - -, f 5;
#X floatatom 346 49 5 0 0 0 - - -, f 5;
#X obj 381 116 +, f 6;
#X floatatom 381 139 5 0 0 0 - - -, f 5;
#X floatatom 403 49 5 0 0 0 - - -, f 5;
#X obj 403 68 trigger bang float;
#X floatatom 429 92 5 0 0 0 - - -, f 5;
#X obj 402 91 bng 15 250 50 0 empty empty empty 17 7 0 10 -262144 -1
-1;
#X floatatom 378 224 5 0 0 0 - - -, f 5;
#X obj 406 278 +;
#X floatatom 406 297 5 0 0 0 - - -, f 5;
#X floatatom 422 223 5 0 0 0 - - -, f 5;
#X obj 422 242 t b f;
#X obj 24 172 bng 15 250 50 0 empty empty empty 17 7 0 10 -262144 -1
-1;
#X text 43 170 bang executes with stored values;
#X text 119 219 2 is a creation argument \, if a new value is sent
to this inlet \, the 2 will be irrelevant, f 24;
#X text 340 -1 3) trigger allows us to execute without modifying the
hot value, f 28;
#X text 37 0 1) here is a simple adding program;
#X text 41 131 2) you can use bang to execute and use creation arguments
, f 30;
#X obj 93 299 print;
#X text 133 298 use print to debug...;
#X text 361 177 4) This is an abbreviated way of patching the same
thing as above, f 25;
#X text 463 88 <- optional bang and number box to see output, f 18
;
#X connect 0 0 1 0;
#X connect 1 0 2 0;
#X connect 3 0 1 1;
#X connect 8 0 9 0;
#X connect 9 0 10 0;
#X connect 10 0 30 0;
#X connect 11 0 9 1;
#X connect 12 0 13 0;
#X connect 13 0 14 0;
#X connect 15 0 16 0;
#X connect 16 0 18 0;
#X connect 16 1 17 0;
#X connect 17 0 13 1;
#X connect 18 0 13 0;
#X connect 19 0 20 0;
#X connect 20 0 21 0;
#X connect 22 0 23 0;
#X connect 23 0 20 0;
#X connect 23 1 20 1;
#X connect 24 0 9 0;
