#N canvas 912 240 1008 703 10;
#X obj 22 20 inlet;
#X obj 22 45 tgl 15 0 empty empty empty 17 7 0 10 -262144 -1 -1 1 1
;
#X obj 22 63 sel 0 1, f 34;
#X msg 22 105 0;
#X obj 22 160 pack;
#X obj 43 137 r \$0-R;
#X obj 123 274 line~;
#X obj 123 322 outlet~;
#X obj 123 93 t b b;
#X msg 227 150 1;
#X obj 227 170 pack;
#X obj 260 146 r \$0-A;
#X obj 123 128 del;
#X obj 178 97 r \$0-A;
#X obj 123 162 f;
#X obj 151 139 r \$0-S;
#X obj 122 224 pack;
#X obj 160 222 r \$0-A;
#X msg 67 105 stop;
#X obj 323 280 s \$0-A;
#X obj 418 279 s \$0-R;
#X obj 371 105 r asr-\$1;
#X obj 333 221 unpack f f f;
#X obj 343 76 inlet;
#X obj 391 139 loadbang;
#X msg 391 158 30 95 2000;
#X text 328 298 ms;
#X obj 372 280 s \$0-S;
#X text 382 299 db;
#X text 429 299 ms;
#X obj 123 181 dbtorms;
#X connect 0 0 1 0;
#X connect 1 0 2 0;
#X connect 2 0 3 0;
#X connect 2 0 18 0;
#X connect 2 1 8 0;
#X connect 3 0 4 0;
#X connect 4 0 6 0;
#X connect 5 0 4 1;
#X connect 6 0 7 0;
#X connect 8 0 12 0;
#X connect 8 1 9 0;
#X connect 9 0 10 0;
#X connect 10 0 6 0;
#X connect 11 0 10 1;
#X connect 12 0 14 0;
#X connect 13 0 12 1;
#X connect 14 0 30 0;
#X connect 15 0 14 1;
#X connect 16 0 6 0;
#X connect 17 0 16 1;
#X connect 18 0 12 0;
#X connect 21 0 22 0;
#X connect 22 0 19 0;
#X connect 22 1 27 0;
#X connect 22 2 20 0;
#X connect 23 0 22 0;
#X connect 24 0 25 0;
#X connect 25 0 22 0;
#X connect 30 0 16 0;
