#N canvas 886 124 1254 937 10;
#X obj 376 15 tab-waveforms;
#N canvas 1092 351 689 614 midi-in 1;
#X obj 71 42 notein;
#X floatatom 49 82 5 0 0 0 - - -, f 5;
#X floatatom 108 83 5 0 0 0 - - -, f 5;
#X obj 108 101 sel 0;
#X msg 108 121 0;
#X msg 137 122 1;
#X floatatom 119 161 5 0 0 0 - - -, f 5;
#X obj 66 190 pack;
#X obj 66 210 poly 1 1;
#X obj 88 238 pack;
#X obj 88 258 s note-data;
#X obj 213 50 bendin;
#X obj 213 69 - 8192;
#X obj 213 89 / 8192;
#X obj 213 108 s bend;
#X obj 214 148 ctlin 1;
#X obj 214 167 / 127;
#X obj 214 187 s midi-modulation;
#X obj 135 37 makenote;
#X msg 132 3 48;
#X msg 161 9 120;
#X msg 202 14 3000;
#X obj 278 -19 metro 4000;
#X obj 251 -22 tgl 15 0 empty empty empty 17 7 0 10 -262144 -1 -1 1
1;
#X obj 278 0 random 12;
#X obj 278 20 + 48;
#X connect 0 0 1 0;
#X connect 0 1 2 0;
#X connect 1 0 7 0;
#X connect 2 0 3 0;
#X connect 3 0 4 0;
#X connect 3 1 5 0;
#X connect 4 0 6 0;
#X connect 5 0 6 0;
#X connect 6 0 7 1;
#X connect 7 0 8 0;
#X connect 8 1 9 0;
#X connect 8 2 9 1;
#X connect 9 0 10 0;
#X connect 11 0 12 0;
#X connect 12 0 13 0;
#X connect 13 0 14 0;
#X connect 15 0 16 0;
#X connect 16 0 17 0;
#X connect 18 0 1 0;
#X connect 18 1 2 0;
#X connect 19 0 18 0;
#X connect 20 0 18 1;
#X connect 21 0 18 2;
#X connect 22 0 24 0;
#X connect 23 0 22 0;
#X connect 24 0 25 0;
#X connect 25 0 18 0;
#X restore 376 39 pd midi-in;
#X obj 228 156 s tune;
#X floatatom 228 134 5 0 0 0 - - -, f 5;
#X obj 428 133 hradio 15 1 0 7 empty empty empty 0 -8 0 10 -262144
-1 -1 4;
#X floatatom 428 150 5 0 0 0 - - -, f 5;
#X floatatom 427 110 5 0 0 0 - - -, f 5;
#X obj 428 169 s octave-1;
#X floatatom 274 134 5 0 0 0 - - -, f 5;
#X obj 274 156 s glide;
#X floatatom 324 134 5 0 0 0 - - -, f 5;
#X obj 324 156 s bend-size;
#X obj 43 78 myosc~ 1;
#N canvas 67 89 450 300 modulation-signal 1;
#X obj 35 101 s~ modulation-signal;
#X restore 376 61 pd modulation-signal;
#X obj 61 101 myosc~ 2;
#X obj 77 123 myosc~ 3;
#X obj 225 280 asr~ amp;
#X msg 269 224 \;;
#X obj 42 173 +~;
#X obj 42 193 /~ 3;
#X obj 98 288 vcf~ 20;
#X obj 125 336 *~;
#X obj 122 156 r note-data;
#X obj 122 175 unpack;
#X obj 112 237 *~;
#X obj 145 239 r f-range;
#X obj 112 257 +~;
#X obj 145 259 r f-min;
#X obj 150 282 r f-q;
#X obj 125 355 dac~;
#X msg 358 208 \; octave-1 1 \; waveform-1 1 \; level-1 0.6 \; octave-2
3 \; waveform-2 2 \; level-2 0.6 \; octave-3 7 \; waveform-3 3 \; level-3
0.6 \; asr-filter 500 94 2000 \; asr-amp 100 98 2000 \; f-range 2000
\; f-min 100 \; f-q 20 \;;
#X obj 112 218 asr~ filter;
#X connect 3 0 2 0;
#X connect 4 0 5 0;
#X connect 5 0 7 0;
#X connect 6 0 4 0;
#X connect 8 0 9 0;
#X connect 10 0 11 0;
#X connect 12 0 18 0;
#X connect 14 0 18 0;
#X connect 15 0 18 0;
#X connect 16 0 21 1;
#X connect 18 0 19 0;
#X connect 19 0 20 0;
#X connect 20 0 21 0;
#X connect 21 0 29 0;
#X connect 22 0 23 0;
#X connect 23 1 16 0;
#X connect 23 1 31 0;
#X connect 24 0 26 0;
#X connect 25 0 24 1;
#X connect 26 0 20 1;
#X connect 27 0 26 1;
#X connect 28 0 20 2;
#X connect 31 0 24 0;
