#N canvas 153 89 1119 972 10;
#X obj 29 18 r note-data;
#X obj 29 37 unpack;
#X floatatom 29 57 5 0 0 0 - - -, f 5;
#X obj 86 39 r tune;
#X floatatom 86 59 5 0 0 0 - - -, f 5;
#X obj 52 89 +;
#X obj 134 40 r octave-\$1;
#X floatatom 133 62 5 0 0 0 - - -, f 5;
#X obj 133 80 - 3;
#X floatatom 133 100 5 0 0 0 - - -, f 5;
#X obj 133 118 * 12;
#X obj 92 156 +;
#X obj 113 192 pack;
#X floatatom 181 146 5 0 0 0 - - -, f 5;
#X obj 181 126 r glide;
#X obj 113 212 line~;
#X obj 219 170 r bend;
#X obj 219 190 *;
#X obj 267 172 r bend-size;
#X floatatom 267 195 5 0 0 0 - - -, f 5;
#X obj 167 296 +~;
#X obj 206 249 r~ modulation-signal;
#X obj 206 269 *~;
#X obj 340 253 r midi-modulation;
#X obj 340 273 pack f 30;
#X obj 340 292 line~;
#X obj 167 316 mtof~;
#X obj 145 248 +~;
#X obj 249 316 r waveform-\$1;
#X obj 194 355 tab-osc;
#X obj 228 429 *~;
#X obj 258 361 r level-\$1;
#X obj 258 381 pack f 30;
#X obj 258 400 line~;
#X obj 228 448 outlet~;
#X connect 0 0 1 0;
#X connect 1 0 2 0;
#X connect 2 0 5 0;
#X connect 3 0 4 0;
#X connect 4 0 5 1;
#X connect 5 0 11 0;
#X connect 6 0 7 0;
#X connect 7 0 8 0;
#X connect 8 0 9 0;
#X connect 9 0 10 0;
#X connect 10 0 11 1;
#X connect 11 0 12 0;
#X connect 12 0 15 0;
#X connect 13 0 12 1;
#X connect 14 0 13 0;
#X connect 15 0 27 0;
#X connect 16 0 17 0;
#X connect 17 0 27 1;
#X connect 18 0 19 0;
#X connect 19 0 17 1;
#X connect 20 0 26 0;
#X connect 21 0 22 0;
#X connect 22 0 20 1;
#X connect 23 0 24 0;
#X connect 24 0 25 0;
#X connect 25 0 22 1;
#X connect 26 0 29 0;
#X connect 27 0 20 0;
#X connect 28 0 29 1;
#X connect 29 0 30 0;
#X connect 30 0 34 0;
#X connect 31 0 32 0;
#X connect 32 0 33 0;
#X connect 33 0 30 1;
