#N canvas 1216 237 649 401 10;
#X obj 28 15 inlet~;
#X obj 28 43 phasor~;
#X obj 31 125 tabread4~;
#X obj 28 62 *~ 2045;
#X obj 27 87 +~ 1;
#X text 126 138 size = 2048;
#X text 96 122 input range: 1 to size-2;
#X obj 148 27 sel 0 1 2 3;
#X obj 31 144 outlet~;
#X obj 148 7 inlet;
#X floatatom 199 6 5 0 0 0 - - -, f 5;
#X msg 148 46 set square;
#X msg 164 65 set sawtooth;
#X msg 184 85 set triangle;
#X msg 202 105 set pulse;
#X connect 0 0 1 0;
#X connect 1 0 3 0;
#X connect 2 0 8 0;
#X connect 3 0 4 0;
#X connect 4 0 2 0;
#X connect 7 0 11 0;
#X connect 7 1 12 0;
#X connect 7 2 13 0;
#X connect 7 3 14 0;
#X connect 9 0 7 0;
#X connect 10 0 7 0;
#X connect 11 0 2 0;
#X connect 12 0 2 0;
#X connect 13 0 2 0;
#X connect 14 0 2 0;
