#N canvas 470 141 422 195 10;
#N canvas 67 414 229 212 amplitude 1;
#N canvas 67 89 1231 979 alarm_1 0;
#X text 367 82 The first state has one oscillator at Midi = 72 and
the other 40 Hz bove this one.;
#X text 366 31 create an alarm system made of two oscillators that
toggles between two "states" every 1.2 seconds. The two states are
as follows:, f 51;
#X text 368 115 The second state has one oscillator at Midi = 78 and
the other oscilator 35 Hz bove this one.;
#X text 371 151 If the main toggle is off \, there should be no sound
at all.;
#X text 370 175 you need to use an unpack object;
#X obj 206 26 tgl 15 0 empty empty empty 17 7 0 10 #fcfcfc #000000
#000000 0 1;
#X obj 206 46 t f f;
#X text 226 26 MAIN TOGGLE;
#X connect 5 0 6 0;
#X restore 54 69 pd alarm_1;
#N canvas 67 89 853 467 alarm_2 0;
#X obj 206 26 tgl 15 0 empty empty empty 17 7 0 10 #fcfcfc #000000
#000000 0 1;
#X obj 206 46 t f f;
#X text 226 26 MAIN TOGGLE;
#X text 367 68 The first oscillator has a frequency of 400Hz and the
other three have 1.1 \, 1.2 and 1.3 times this number.;
#X text 368 109 The alarm is on for 0.3 seconds and then off for 0.3
seconds.;
#X text 369 146 The alarm is turned on and off by the Main Toggle;
#X text 366 31 create an alarm system made of four oscillators whose
signals are added:;
#X connect 0 0 1 0;
#X restore 54 92 pd alarm_2;
#X text 54 45 audio experiments;
#N canvas 67 93 1920 976 crossfades 1;
#X text 18 19 Create a system with 3 mechanisms.;
#X text 17 43 mechanism A generates upward glisses from 0 to 800Hz
over x ms every y ms \, using a sine wave oscillator., f 107;
#X text 17 73 mechanism B generates downward glisses from 800 to 0Hz
over x ms every y ms \, using a sine wave oscillator., f 108;
#X text 16 159 defaults are given below:;
#X floatatom 368 231 5 0 0 0 - - - 0;
#X obj 368 250 s x;
#X floatatom 412 232 5 0 0 0 - - - 0;
#X msg 412 209 500;
#X obj 412 251 s y;
#X floatatom 456 232 5 0 0 0 - - - 0;
#X obj 456 251 s z;
#X msg 456 210 2000;
#X obj 512 213 tgl 15 0 empty empty empty 17 7 0 10 #fcfcfc #000000
#000000 0 1;
#X obj 512 233 s main-switch;
#X obj 419 178 bng 15 250 50 0 empty empty empty 17 7 0 10 #fcfcfc
#000000 #000000;
#X text 438 179 load/refresh;
#X obj 419 155 loadbang;
#X text 474 155 <- read help file;
#X text 48 297 MECH A;
#X text 270 296 MECH B;
#X text 490 302 MECH C;
#X msg 368 209 400;
#X text 17 106 mechanism C generates two sets of line segments. The
first one goes from 0 to 1 over z ms while the second goes from 1 to
0 over z ms. Immediately after \, the first one goes back down to 0
over z ms while the second ramps back up to 1 over ms. This repeats
every z ms., f 108;
#X obj 97 328 r x;
#X floatatom 97 350 5 0 0 0 - - - 0;
#X connect 4 0 5 0;
#X connect 6 0 8 0;
#X connect 7 0 6 0;
#X connect 9 0 10 0;
#X connect 11 0 9 0;
#X connect 12 0 13 0;
#X connect 14 0 21 0;
#X connect 14 0 7 0;
#X connect 14 0 11 0;
#X connect 16 0 14 0;
#X connect 21 0 4 0;
#X connect 23 0 24 0;
#X restore 54 115 pd crossfades;
#N canvas 67 89 576 569 envelope_1 0;
#X obj 89 299 osc~ 440;
#X obj 109 416 *~;
#X text 4 0 Make a small patch that controls the amplitude of an oscilator
in the following way.;
#X obj 109 438 dac~;
#X obj 89 274 mtof;
#X floatatom 89 200 5 0 0 0 - - - 0;
#X obj 89 252 t f b, f 29;
#X obj 260 275 bng 15 250 50 0 empty empty empty 17 7 0 10 #fcfcfc
#000000 #000000;
#X text 278 272 put your patch below this bang, f 15;
#X floatatom 422 103 5 0 0 0 - - - 0;
#X floatatom 489 104 5 0 0 0 - - - 0;
#X obj 91 86 tgl 15 0 empty empty empty 17 7 0 10 #fcfcfc #000000 #000000
0 1;
#X obj 91 106 metro 200;
#X obj 91 151 sel 0 1;
#X obj 91 128 random 2;
#X msg 89 176 48;
#X msg 120 176 65;
#X obj 442 13 loadbang;
#X msg 442 35 30 500;
#X obj 442 57 unpack;
#X text 3 33 1) Ramp up to 1 over xx ms;
#X text 4 51 2) Once it reaches 1 \, ramp down to 0 over yy ms;
#X obj 422 122 s xx;
#X obj 489 123 s yy;
#X connect 0 0 1 0;
#X connect 1 0 3 0;
#X connect 1 0 3 1;
#X connect 4 0 0 0;
#X connect 5 0 6 0;
#X connect 6 0 4 0;
#X connect 6 1 7 0;
#X connect 9 0 22 0;
#X connect 10 0 23 0;
#X connect 11 0 12 0;
#X connect 12 0 14 0;
#X connect 13 0 15 0;
#X connect 13 1 16 0;
#X connect 14 0 13 0;
#X connect 15 0 5 0;
#X connect 16 0 5 0;
#X connect 17 0 18 0;
#X connect 18 0 19 0;
#X connect 19 0 9 0;
#X connect 19 1 10 0;
#X restore 54 138 pd envelope_1;
#N canvas 243 102 457 483 envelope_2 0;
#X obj 198 58 tgl 15 0 empty empty empty 17 7 0 10 #fcfcfc #000000
#000000 0 1;
#X obj 198 144 tgl 15 0 empty empty empty 17 7 0 10 #fcfcfc #000000
#000000 0 1;
#X floatatom 265 80 5 0 0 0 - - - 0;
#X obj 265 100 t f f;
#X obj 94 142 osc~ 500;
#X text 240 79 x =;
#X text 217 59 click to run;
#X obj 198 122 metro 1000;
#X text 306 79 ms;
#X text 32 23 Create a mechanism that fades the sound of an oscillator
in (to 1) and out (to 0) over "x" msec and every "x" msec;
#X connect 0 0 7 0;
#X connect 2 0 3 0;
#X connect 3 0 7 1;
#X connect 7 0 1 0;
#X restore 54 161 pd envelope_2;
#X restore 69 139 pd amplitude envelopes;
#N canvas 67 89 450 300 some_basics 0;
#N canvas 1406 234 450 300 what_is_wrong?----1 0;
#X obj 69 60 line~;
#X text 149 58 What is wrong with this? correct it..., f 25;
#X obj 69 121 *~;
#X floatatom 69 89 5 0 0 0 - - - 0;
#X connect 0 0 3 0;
#X connect 3 0 2 0;
#X restore 64 33 pd what_is_wrong?----1;
#N canvas 252 89 450 300 what_is_wrong?----2 0;
#X text 149 58 What is wrong with this? correct it..., f 25;
#X obj 69 90 t b b;
#X msg 98 141 first;
#X msg 45 141 second;
#X obj 70 60 bng 15 250 50 0 empty empty empty 17 7 0 10 #fcfcfc #000000
#000000;
#X connect 1 0 2 0;
#X connect 1 0 3 0;
#X connect 4 0 1 0;
#X restore 64 55 pd what_is_wrong?----2;
#N canvas 296 85 540 248 what_is_wrong?----3 0;
#X text 149 58 What is wrong with this? correct it..., f 25;
#X obj 42 123 sel 0 1;
#X obj 37 30 tgl 15 0 empty empty empty 17 7 0 10 #fcfcfc #000000 #000000
0 1;
#X msg 43 180 apple;
#X msg 110 180 carrot;
#X text 150 19 If I want to get apples in 0 and carrots in 1...;
#X obj 37 50 metro 1000;
#X obj 37 76 tgl 15 0 empty empty empty 17 7 0 10 #fcfcfc #000000 #000000
0 1;
#X connect 1 1 3 0;
#X connect 1 2 4 0;
#X connect 2 0 6 0;
#X connect 6 0 7 0;
#X connect 7 0 1 0;
#X restore 64 77 pd what_is_wrong?----3;
#X text 65 9 What is wrong!?;
#N canvas 981 183 450 300 same-or-different 0;
#X obj 62 125 metro 500;
#X obj 62 102 tgl 15 0 empty empty empty 17 7 0 10 #fcfcfc #000000
#000000 0 1;
#X obj 62 152 tgl 15 0 empty empty empty 17 7 0 10 #fcfcfc #000000
#000000 0 1;
#X obj 250 123 metro 500;
#X obj 250 100 tgl 15 0 empty empty empty 17 7 0 10 #fcfcfc #000000
#000000 0 1;
#X obj 250 145 f;
#X obj 281 146 + 1;
#X obj 250 167 mod 2;
#X text 114 20 same or different?;
#X connect 0 0 2 0;
#X connect 1 0 0 0;
#X connect 3 0 5 0;
#X connect 4 0 3 0;
#X connect 5 0 6 0;
#X connect 5 0 7 0;
#X connect 6 0 5 1;
#X restore 62 188 pd same-or-different;
#X text 61 167 same or different?;
#N canvas 704 89 765 521 what_is_wrong?----4 0;
#X text 173 60 What is wrong with this? correct it..., f 25;
#X obj 83 81 t b b;
#X msg 81 130 0 400;
#X obj 6 156 osc~ 400;
#X obj 34 237 dac~;
#X obj 79 54 bng 15 250 50 0 empty empty empty 17 7 0 10 #fcfcfc #000000
#000000;
#X obj 44 201 *~;
#X msg 110 104 1;
#X obj 81 153 line;
#X connect 1 0 2 0;
#X connect 1 1 7 0;
#X connect 2 0 8 0;
#X connect 3 0 6 0;
#X connect 5 0 1 0;
#X connect 6 0 4 0;
#X connect 6 0 4 1;
#X connect 7 0 8 0;
#X connect 8 0 6 1;
#X restore 64 98 pd what_is_wrong?----4;
#N canvas 67 89 450 300 same-or-different 0;
#X text 114 20 same or different?;
#X obj 93 100 bng 15 250 50 0 empty empty empty 17 7 0 10 #fcfcfc #000000
#000000;
#X obj 93 120 t b b, f 9;
#X msg 142 142 1;
#X msg 93 142 0 50;
#X obj 268 114 bng 15 250 50 0 empty empty empty 17 7 0 10 #fcfcfc
#000000 #000000;
#X msg 268 134 1 \, 0 50;
#X connect 1 0 2 0;
#X connect 2 0 4 0;
#X connect 2 1 3 0;
#X connect 5 0 6 0;
#X restore 62 209 pd same-or-different;
#N canvas 67 89 450 300 same-or-different 0;
#X text 114 20 same or different?;
#X obj 93 100 bng 15 250 50 0 empty empty empty 17 7 0 10 #fcfcfc #000000
#000000;
#X obj 93 120 t b b, f 9;
#X msg 142 142 1;
#X msg 93 142 0 50;
#X obj 267 109 bng 15 250 50 0 empty empty empty 17 7 0 10 #fcfcfc
#000000 #000000;
#X msg 315 145 1;
#X msg 266 145 0 50;
#X connect 1 0 2 0;
#X connect 2 0 4 0;
#X connect 2 1 3 0;
#X connect 5 0 7 0;
#X connect 5 0 6 0;
#X restore 62 230 pd same-or-different;
#N canvas 1033 139 386 310 banging_toggles 0;
#X obj 31 24 bng 15 250 50 0 empty empty empty 17 7 0 10 #fcfcfc #000000
#000000;
#X obj 31 49 tgl 15 0 empty empty empty 17 7 0 10 #fcfcfc #000000 #000000
0 1;
#X floatatom 31 69 5 0 0 0 - - - 0;
#X obj 31 88 print;
#X text 52 23 bang repeatedly;
#X text 80 75 notice you get 1s and 0s;
#X connect 0 0 1 0;
#X connect 1 0 2 0;
#X connect 2 0 3 0;
#X restore 63 140 pd banging_toggles;
#X text 62 118 experiment;
#X restore 68 79 pd some_basics;
#N canvas 67 141 197 203 control 0;
#N canvas 1087 129 716 661 1/x 0;
#X text 58 44 how do you calculate 1 over x;
#X floatatom 142 94 5 0 0 0 - - - 0;
#X text 112 95 x =;
#X text 76 263 result =;
#X floatatom 142 264 5 0 0 0 - - - 0;
#X restore 29 24 pd 1/x;
#N canvas 67 89 617 309 square 0;
#X text 137 55 x =;
#X floatatom 171 56 5 0 0 0 - - - 0;
#X text 408 60 x =;
#X floatatom 442 61 5 0 0 0 - - - 0;
#X text 109 243 result =;
#X floatatom 175 244 5 0 0 0 - - - 0;
#X text 376 238 result =;
#X floatatom 442 239 5 0 0 0 - - - 0;
#X text 57 26 how do you calculate the square power of x;
#X text 388 26 the cubic power?;
#X restore 29 50 pd square;
#N canvas 67 89 336 346 1/square(x) 0;
#X floatatom 152 71 5 0 0 0 - - - 0;
#X text 122 72 x =;
#X text 38 23 how do you calculate 1 over the square of x;
#X text 85 292 result =;
#X floatatom 148 293 5 0 0 0 - - - 0;
#X restore 29 75 pd 1/square(x);
#X restore 69 108 pd control;
#X text 52 78 1);
#X text 52 138 3);
#X text 52 108 2);
#X text 42 29 In edit mode \, click on the subpatches below to access
the exercises:;
