#N canvas 360 314 1196 787 10;
#X floatatom 29 35 5 0 0 0 - - -, f 5;
#X obj 29 53 osc~;
#X obj 43 146 dac~;
#X obj 52 110 *~;
#X floatatom 114 33 5 0 0 0 - - -, f 5;
#X obj 114 51 osc~;
#X msg 264 27 0 \, 440 20000;
#X obj 264 47 line;
#X floatatom 224 106 5 0 0 0 - - -, f 5;
#X obj 224 125 osc~;
#X floatatom 309 104 5 0 0 0 - - -, f 5;
#X obj 309 123 osc~;
#X obj 262 191 +~;
#X obj 252 245 dac~;
#X obj 262 210 /~ 2;
#X text 405 27 amplitude modulation;
#X obj 427 253 dac~;
#X obj 440 212 *~;
#X floatatom 475 157 5 0 0 0 - - -, f 5;
#X obj 475 175 osc~;
#X obj 413 160 adc~;
#X text 469 213 ring modulation;
#X connect 0 0 1 0;
#X connect 1 0 3 0;
#X connect 4 0 5 0;
#X connect 5 0 3 1;
#X connect 6 0 7 0;
#X connect 7 0 4 0;
#X connect 8 0 9 0;
#X connect 9 0 12 0;
#X connect 10 0 11 0;
#X connect 11 0 12 1;
#X connect 12 0 14 0;
#X connect 18 0 19 0;
#X connect 19 0 17 1;
#X connect 20 0 17 0;
