#N canvas 344 205 684 564 10;
#X declare -path ./lib;
#X obj 58 137 osc~;
#X obj 47 221 dac~;
#X floatatom 57 116 5 0 0 0 - - -, f 5;
#X obj 58 159 *~;
#X obj 85 161 tgl 15 0 empty empty empty 17 7 0 10 -262144 -1 -1 0
1;
#X text 95 115 frequency;
#X obj 320 164 osc~;
#X obj 309 248 dac~;
#X floatatom 252 55 5 0 0 0 - - -, f 5;
#X obj 320 186 *~;
#X obj 347 188 tgl 15 0 empty empty empty 17 7 0 10 -262144 -1 -1 0
1;
#X obj 320 140 +~;
#X obj 418 79 osc~;
#X obj 418 103 *~ 1;
#X floatatom 418 57 5 0 0 0 - - -, f 5;
#X floatatom 458 103 5 0 0 0 - - -, f 5;
#X text 453 55 modulating frequency;
#X text 290 54 carrier frequency;
#X text 494 102 modulation index (amplitude), f 16;
#X obj 67 311 graph_one;
#X obj 400 401 declare -path ./lib;
#X text 52 79 REGULAR OSCILLATOR, f 11;
#X text 293 18 FREQUENCY MODULATION;
#X connect 0 0 3 0;
#X connect 2 0 0 0;
#X connect 3 0 1 0;
#X connect 3 0 1 1;
#X connect 4 0 3 1;
#X connect 6 0 9 0;
#X connect 8 0 11 0;
#X connect 9 0 7 0;
#X connect 9 0 7 1;
#X connect 9 0 19 0;
#X connect 10 0 9 1;
#X connect 11 0 6 0;
#X connect 12 0 13 0;
#X connect 13 0 11 1;
#X connect 14 0 12 0;
#X connect 15 0 13 1;
