#N canvas 185 96 1672 987 10;
#X declare -path ./lib;
#X obj 142 169 osc~;
#X floatatom 142 149 5 0 0 0 - - -, f 5;
#X obj 375 9 r~ s1;
#X obj 484 8 r~ s2;
#X obj 110 450 dac~;
#X obj 135 419 *~;
#X obj 166 402 pack f 30;
#X obj 166 421 line~;
#X floatatom 166 385 5 0 0 0 - - -, f 5;
#X obj 135 326 osc~;
#X obj 20 254 +~;
#X floatatom 19 81 5 0 0 0 - - -, f 5;
#X obj 142 234 *~;
#X text 177 149 <- modulation frequency;
#X floatatom 193 211 5 0 0 0 - - -, f 5;
#X text 230 212 <- modulation index;
#X obj 77 185 s~ s1;
#X obj 80 356 s~ s2;
#X obj 375 36 graph_two;
#X text 141 312 /;
#X obj 19 61 r cf;
#X obj 193 170 r mi;
#X obj 142 107 r mf;
#X text 60 81 <- carrier frequency;
#X text 151 302 Frequency;
#X text 204 385 <- Amplitude;
#X obj 375 386 graph_spectrum_2.5k;
#X text 130 274 B) MAIN (CARRIER);
#X text 151 285 OSCILLATOR;
#X msg 738 167 \; cf 1000 \; mf 0.5 \; mi 250;
#X msg 373 629 \; cf 0 \; mf 0 \; mi 0;
#X msg 670 77 \; cf 1000 \; mf 0 \; mi 0;
#X text 187 109 A) MODULATING;
#X text 208 119 OSCILLATOR;
#X msg 667 167 \; cf 1000 \; mf 5 \; mi 15;
#X obj 142 128 line;
#X obj 193 191 line;
#X msg 45 571 \; mf 0 \, 50 30000 \;;
#X msg 45 603 \; mf 0 \, 250 30000 \;;
#X msg 173 571 \; mi 0 \, 350 30000 \;;
#X msg 173 603 \; mi 0 \, 2000 30000 \;;
#X msg 104 647 \; cf 1000 \; mf 250 \; mi 2000;
#X msg 35 646 \; cf 1000 \; mf 1000 \; mi 2000;
#X msg 171 647 \; cf 1000 \; mf 146 \; mi 2000;
#X msg 239 648 \; cf 1000 \; mf 191 \; mi 2000;
#X obj 328 379 r~ s2;
#X obj 453 632 declare -path ./lib;
#X text 49 481 TRY ALL OF THESE BELOW:;
#X connect 0 0 12 0;
#X connect 0 0 16 0;
#X connect 1 0 0 0;
#X connect 2 0 18 0;
#X connect 3 0 18 1;
#X connect 5 0 4 0;
#X connect 5 0 4 1;
#X connect 6 0 7 0;
#X connect 7 0 5 1;
#X connect 8 0 6 0;
#X connect 9 0 5 0;
#X connect 9 0 17 0;
#X connect 10 0 9 0;
#X connect 11 0 10 0;
#X connect 12 0 10 1;
#X connect 14 0 12 1;
#X connect 20 0 11 0;
#X connect 21 0 36 0;
#X connect 22 0 35 0;
#X connect 35 0 1 0;
#X connect 36 0 14 0;
#X connect 45 0 26 0;
