#N canvas 67 89 1385 989 10;
#X declare -path ./lib;
#X obj 160 250 osc~;
#X floatatom 160 230 5 0 0 0 - - -, f 5;
#X obj 433 3 r~ s1;
#X obj 542 3 r~ s2;
#X obj 249 483 dac~;
#X obj 249 450 *~;
#X obj 302 440 pack f 30;
#X obj 302 461 line~;
#X floatatom 302 422 5 0 0 0 - - -, f 5;
#X obj 220 350 osc~;
#X obj 85 323 +~;
#X floatatom 85 67 5 0 0 0 - - -, f 5;
#X obj 160 292 *~;
#X floatatom 236 231 5 0 0 0 - - -, f 5;
#X obj 119 266 s~ s1;
#X obj 245 379 s~ s2;
#X obj 433 25 graph_two;
#X text 226 336 /;
#X obj 85 47 r cf;
#X text 234 326 Frequency;
#X obj 432 387 graph_spectrum_2.5k;
#X text 77 358 B) MAIN (CARRIER);
#X text 105 369 OSCILLATOR;
#X floatatom 160 70 5 0 0 0 - - -, f 5;
#X obj 236 202 *;
#X obj 160 110 t b f;
#X obj 236 180 t b f;
#X text 111 189 A) MODULATING;
#X text 131 199 OSCILLATOR;
#X obj 160 88 line;
#X obj 236 159 line;
#X text 200 230 mf;
#X text 280 231 mi;
#X text 126 67 cf;
#X obj 236 249 pack f 30;
#X obj 236 276 line~;
#X text 345 422 A;
#X obj 302 380 r A;
#X obj 160 47 r hr;
#X obj 236 110 r i;
#X msg 33 645 \; cf 300 \; hr 1 \; i 5 \, 0 500 \; A 1 \, 0 1000;
#X text 268 111 index;
#X text 202 71 harmonicity ratio;
#X msg 36 567 \; cf 100 \; hr 1 \; i 10 \, 0 800 \; A 1 \, 0 1000;
#X msg 348 608 \; cf 100 \; hr 1.34 \; i 10 \, 0 800 \; A 1 \, 0 1000
;
#X text 587 638 mf = cf/hr;
#X obj 160 135 *;
#X obj 302 401 line;
#X msg 53 409 \; cf 100 \; hr 1 \; i 10 \; A 1;
#X msg 349 680 \; cf 300 \; hr 0.23 \; i 7 \, 0 6000 \; A 1 \, 0 4000
;
#X msg 124 568 \; cf 100 \; hr 2 \; i 15 \, 0 7000 \; A 1 \, 0 7000
;
#X obj 534 611 declare -path ./lib;
#X msg 123 643 \; cf 300 \; hr 2 \; i 5 \, 0 800 \; A 1 \, 0 1200;
#N canvas 575 133 437 525 trick 0;
#X floatatom 179 289 5 0 0 0 - - -, f 5;
#X obj 179 308 / 10;
#X obj 179 330 pack f 100;
#X obj 179 80 adc~;
#X obj 179 121 env~;
#X floatatom 179 143 5 0 0 0 - - -, f 5;
#X floatatom 179 184 5 0 0 0 - - -, f 5;
#X obj 179 203 moses 0;
#X msg 179 225 0;
#X floatatom 179 247 5 0 0 0 - - -, f 5;
#X obj 179 266 * 10;
#X obj 179 162 - 56;
#X obj 255 351 tgl 15 0 empty empty empty 17 7 0 10 -262144 -1 -1 0
1;
#X text 276 351 open gate and talk;
#X obj 179 352 spigot;
#X obj 179 374 s i;
#X connect 0 0 1 0;
#X connect 1 0 2 0;
#X connect 2 0 14 0;
#X connect 3 0 4 0;
#X connect 4 0 5 0;
#X connect 5 0 11 0;
#X connect 6 0 7 0;
#X connect 7 0 8 0;
#X connect 7 1 9 0;
#X connect 8 0 9 0;
#X connect 9 0 10 0;
#X connect 10 0 0 0;
#X connect 11 0 6 0;
#X connect 12 0 14 1;
#X connect 14 0 15 0;
#X restore 600 587 pd trick;
#X floatatom 261 136 5 0 0 0 - - -, f 5;
#X msg 215 569 \; cf 100 \; hr 0.5 \; i 10 \, 0 800 \; A 1 \, 0 1000
;
#X msg 214 643 \; cf 100 \; hr 0.25 \; i 10 \, 0 800 \; A 1 \, 0 1000
;
#X text 54 390 test;
#X text 36 533 USE an integer (or divide 1 by halves) for "hr" to get
harmonic sounds;
#X msg 443 607 \; cf 100 \; hr 0.66 \; i 10 \, 0 800 \; A 1 \, 0 1000
;
#X msg 444 679 \; cf 100 \; hr 3.78 \; i 10 \, 0 800 \; A 1 \, 0 1000
;
#X text 366 587 inharmonic sounds:;
#X text 283 19 mf = hr*cf, f 18;
#X text 152 7 harmonicity ratio (hr) = mf/cf, f 18;
#X connect 0 0 12 0;
#X connect 0 0 14 0;
#X connect 1 0 0 0;
#X connect 2 0 16 0;
#X connect 3 0 16 1;
#X connect 5 0 4 0;
#X connect 5 0 4 1;
#X connect 6 0 7 0;
#X connect 7 0 5 1;
#X connect 8 0 6 0;
#X connect 9 0 5 0;
#X connect 9 0 15 0;
#X connect 9 0 20 0;
#X connect 10 0 9 0;
#X connect 11 0 10 0;
#X connect 11 0 46 0;
#X connect 12 0 10 1;
#X connect 13 0 34 0;
#X connect 18 0 11 0;
#X connect 23 0 29 0;
#X connect 24 0 13 0;
#X connect 25 0 46 0;
#X connect 25 1 46 1;
#X connect 26 0 24 0;
#X connect 26 1 24 1;
#X connect 29 0 25 0;
#X connect 30 0 26 0;
#X connect 34 0 35 0;
#X connect 35 0 12 1;
#X connect 37 0 47 0;
#X connect 38 0 23 0;
#X connect 39 0 30 0;
#X connect 39 0 54 0;
#X connect 46 0 1 0;
#X connect 46 0 24 0;
#X connect 47 0 8 0;
