#N canvas 0 81 1006 687 10;
#X declare -path ./lib;
#X obj 160 252 osc~;
#X floatatom 160 232 5 0 0 0 - - -, f 5;
#X obj 349 637 dac~;
#X obj 220 371 osc~;
#X obj 85 325 +~;
#X floatatom 85 69 5 0 0 0 - - -, f 5;
#X obj 160 294 *~;
#X floatatom 236 233 5 0 0 0 - - -, f 5;
#X text 226 357 /;
#X text 234 347 Frequency;
#X obj 685 253 graph_spectrum_2.5k;
#X text 98 373 B) MAIN (CARRIER);
#X text 119 382 OSCILLATOR;
#X floatatom 160 72 5 0 0 0 - - -, f 5;
#X obj 236 204 *;
#X obj 160 112 t b f;
#X obj 236 182 t b f;
#X text 111 191 A) MODULATING;
#X text 131 201 OSCILLATOR;
#X obj 160 90 line;
#X obj 236 161 line;
#X text 200 232 mf;
#X text 280 233 mi;
#X text 126 69 cf;
#X obj 236 251 pack f 30;
#X obj 236 278 line~;
#X text 268 113 index;
#X text 202 73 harmonicity ratio;
#X obj 160 137 *;
#X obj 764 9 declare -path ./lib;
#X floatatom 236 134 5 0 0 0 - - -, f 5;
#X obj 438 264 osc~;
#X floatatom 438 244 5 0 0 0 - - -, f 5;
#X obj 498 383 osc~;
#X obj 363 337 +~;
#X floatatom 363 81 5 0 0 0 - - -, f 5;
#X obj 438 306 *~;
#X floatatom 514 245 5 0 0 0 - - -, f 5;
#X text 504 369 /;
#X text 512 359 Frequency;
#X text 376 385 B) MAIN (CARRIER);
#X text 397 394 OSCILLATOR;
#X floatatom 438 84 5 0 0 0 - - -, f 5;
#X obj 514 216 *;
#X obj 438 124 t b f;
#X obj 514 194 t b f;
#X text 389 203 A) MODULATING;
#X text 409 213 OSCILLATOR;
#X obj 438 102 line;
#X obj 514 173 line;
#X text 478 244 mf;
#X text 558 245 mi;
#X text 404 81 cf;
#X obj 514 263 pack f 30;
#X obj 514 290 line~;
#X text 546 125 index;
#X text 480 85 harmonicity ratio;
#X obj 438 149 *;
#X floatatom 514 146 5 0 0 0 - - -, f 5;
#X obj 85 49 r cf1;
#X obj 160 49 r hr1;
#X obj 236 112 r i1;
#X obj 363 61 r cf2;
#X obj 438 61 r hr2;
#X obj 514 124 r i2;
#X obj 212 408 s~ s1;
#X obj 505 409 s~ s2;
#X obj 684 33 graph_spectrum_2.5k;
#X obj 683 11 r~ s1;
#X obj 685 230 r~ s2;
#X obj 352 588 +~;
#X obj 352 610 *~ 0.5;
#X obj 495 470 *~;
#X obj 548 460 pack f 30;
#X obj 548 481 line~;
#X floatatom 548 442 5 0 0 0 - - -, f 5;
#X text 591 442 A;
#X obj 577 409 line;
#X obj 577 388 r A2;
#X obj 239 446 *~;
#X obj 292 436 pack f 30;
#X obj 292 457 line~;
#X floatatom 292 418 5 0 0 0 - - -, f 5;
#X text 335 418 A;
#X obj 321 385 line;
#X obj 321 364 r A1;
#X obj 686 491 graph_spectrum_2.5k;
#X obj 686 468 r~ s3;
#X obj 450 589 s~ s3;
#X msg 70 456 \; cf1 100 \; hr1 2 \; i1 4.9 \; A1 0.43 \; cf2 50 \;
hr2 4 \; i2 10 \; A2 0.29;
#X connect 0 0 6 0;
#X connect 1 0 0 0;
#X connect 3 0 65 0;
#X connect 3 0 79 0;
#X connect 4 0 3 0;
#X connect 5 0 4 0;
#X connect 5 0 28 0;
#X connect 6 0 4 1;
#X connect 7 0 24 0;
#X connect 13 0 19 0;
#X connect 14 0 7 0;
#X connect 15 0 28 0;
#X connect 15 1 28 1;
#X connect 16 0 14 0;
#X connect 16 1 14 1;
#X connect 19 0 15 0;
#X connect 20 0 16 0;
#X connect 24 0 25 0;
#X connect 25 0 6 1;
#X connect 28 0 1 0;
#X connect 28 0 14 0;
#X connect 30 0 20 0;
#X connect 31 0 36 0;
#X connect 32 0 31 0;
#X connect 33 0 66 0;
#X connect 33 0 72 0;
#X connect 34 0 33 0;
#X connect 35 0 34 0;
#X connect 35 0 57 0;
#X connect 36 0 34 1;
#X connect 37 0 53 0;
#X connect 42 0 48 0;
#X connect 43 0 37 0;
#X connect 44 0 57 0;
#X connect 44 1 57 1;
#X connect 45 0 43 0;
#X connect 45 1 43 1;
#X connect 48 0 44 0;
#X connect 49 0 45 0;
#X connect 53 0 54 0;
#X connect 54 0 36 1;
#X connect 57 0 32 0;
#X connect 57 0 43 0;
#X connect 58 0 49 0;
#X connect 59 0 5 0;
#X connect 60 0 13 0;
#X connect 61 0 30 0;
#X connect 62 0 35 0;
#X connect 63 0 42 0;
#X connect 64 0 58 0;
#X connect 68 0 67 0;
#X connect 69 0 10 0;
#X connect 70 0 71 0;
#X connect 70 0 88 0;
#X connect 71 0 2 0;
#X connect 71 0 2 1;
#X connect 72 0 70 1;
#X connect 73 0 74 0;
#X connect 74 0 72 1;
#X connect 75 0 73 0;
#X connect 77 0 75 0;
#X connect 78 0 77 0;
#X connect 79 0 70 0;
#X connect 80 0 81 0;
#X connect 81 0 79 1;
#X connect 82 0 80 0;
#X connect 84 0 82 0;
#X connect 85 0 84 0;
#X connect 87 0 86 0;
