#N canvas 806 147 267 395 10;
#X declare -path ../samples;
#N canvas 529 23 268 211 midi 1;
#X obj 42 2 notein 1;
#X floatatom 42 24 5 0 0 0 - - -, f 5;
#X floatatom 87 25 5 0 0 0 - - -, f 5;
#X obj 56 57 pack;
#X obj 56 79 poly 8 0;
#X floatatom 13 109 5 0 0 0 - - -, f 5;
#X floatatom 58 110 5 0 0 0 - - -, f 5;
#X floatatom 106 109 5 0 0 0 - - -, f 5;
#X obj 30 140 pack f f f;
#X msg 30 162 \; voice-data-\$1 \$2 \$3;
#X obj 12 79 - 1;
#X obj 176 51 tgl 15 0 empty empty empty 17 7 0 10 -262144 -1 -1 0
1;
#X obj 176 71 * 100;
#X msg 176 93 64 \$1;
#X obj 176 23 metro 1000;
#X obj 175 2 tgl 15 0 empty empty empty 17 7 0 10 -262144 -1 -1 0 1
;
#X connect 0 0 1 0;
#X connect 0 1 2 0;
#X connect 1 0 3 0;
#X connect 2 0 3 1;
#X connect 3 0 4 0;
#X connect 4 0 10 0;
#X connect 4 1 6 0;
#X connect 4 2 7 0;
#X connect 5 0 8 0;
#X connect 6 0 8 1;
#X connect 7 0 8 2;
#X connect 8 0 9 0;
#X connect 10 0 5 0;
#X connect 11 0 12 0;
#X connect 12 0 13 0;
#X connect 13 0 4 0;
#X connect 14 0 11 0;
#X connect 15 0 14 0;
#X restore 15 5 pd midi;
#X obj 15 180 dac~;
#X obj 15 127 catch~ soundout;
#X obj 14 369 declare -path ../samples;
#X msg 15 259 79;
#X obj 15 321 s ref-pitch;
#X obj 15 220 loadbang;
#X obj 92 320 s array;
#X msg 25 280 57;
#X obj 167 298 tgl 15 0 empty empty empty 17 7 0 10 -262144 -1 -1 0
1;
#X obj 167 318 s durate;
#X msg 92 258 symbol flute;
#X msg 101 278 symbol guitar;
#X obj 145 221 bng 15 250 50 0 empty empty empty 17 7 0 10 -262144
-1 -1;
#X obj 145 200 bng 15 250 50 0 empty empty empty 17 7 0 10 -262144
-1 -1;
#X text 167 198 flute;
#X text 167 220 guitar;
#X obj 15 61 samp-loader gtr-57 guitar;
#X obj 15 98 clone voice 8;
#X obj 15 149 /~ 1;
#X obj 15 40 samp-loader fl-g5 flute;
#X connect 2 0 19 0;
#X connect 4 0 5 0;
#X connect 6 0 4 0;
#X connect 6 0 11 0;
#X connect 8 0 5 0;
#X connect 9 0 10 0;
#X connect 11 0 7 0;
#X connect 12 0 7 0;
#X connect 13 0 8 0;
#X connect 13 0 12 0;
#X connect 14 0 4 0;
#X connect 14 0 11 0;
#X connect 19 0 1 0;
#X connect 19 0 1 1;
