#N canvas 319 23 455 436 10;
#X obj 8 14 loadbang;
#X obj 8 114 symbol \$1;
#X symbolatom 8 136 10 0 0 0 - - -, f 10;
#N canvas 0 22 450 278 (subpatch) 0;
#X array \$2 45505 float 2;
#X coords 0 1 45505 -1 200 140 1 0 0;
#X restore 122 266 graph;
#X obj 8 221 soundfiler;
#X floatatom 8 242 10 0 0 0 - - -, f 10;
#X obj 8 261 t f f;
#X obj 8 352 s n-samp;
#X obj 35 285 / 44.1;
#X floatatom 35 307 5 0 0 0 - - -, f 5;
#X obj 35 326 s ms-samp;
#X obj 8 82 t b b, f 15;
#X symbolatom 95 136 10 0 0 0 - - -, f 10;
#X obj 95 114 symbol \$2;
#X obj 8 163 pack s s, f 15;
#X obj 81 12 bng 15 250 50 0 empty empty empty 17 7 0 10 -262144 -1
-1;
#X msg 8 199 read -resize ../samples/\$1.wav \$2;
#X connect 0 0 11 0;
#X connect 1 0 2 0;
#X connect 2 0 14 0;
#X connect 4 0 5 0;
#X connect 5 0 6 0;
#X connect 6 0 7 0;
#X connect 6 1 8 0;
#X connect 8 0 9 0;
#X connect 9 0 10 0;
#X connect 11 0 1 0;
#X connect 11 1 13 0;
#X connect 12 0 14 1;
#X connect 13 0 12 0;
#X connect 14 0 16 0;
#X connect 15 0 11 0;
#X connect 16 0 4 0;
