#N canvas 203 23 368 555 10;
#X obj 50 405 line~;
#X msg 95 274 0;
#X msg 13 266 1;
#X obj 13 380 pack, f 7;
#X obj 68 290 r ms-samp;
#X obj 69 433 *~;
#X obj 98 358 r n-samp;
#X obj 97 402 - 3;
#X obj 69 455 +~ 1;
#X obj 54 331 f;
#X obj 54 353 * 1;
#X floatatom 137 326 5 0 0 0 - - -, f 5;
#X floatatom 13 96 5 0 0 0 - - -, f 5;
#X obj 13 115 mtof;
#X obj 13 137 / 440, f 7;
#X obj 13 159 t b f;
#X msg 13 181 1;
#X obj 13 203 /;
#X floatatom 13 225 5 0 0 0 - - -, f 5;
#X obj 13 244 t b b b f, f 21;
#X obj 4 3 r voice-data-\$1;
#X obj 4 25 unpack;
#X obj 193 125 sel 0, f 8;
#X obj 4 70 spigot;
#X obj 174 525 throw~ soundout;
#X floatatom 52 96 5 0 0 0 - - -, f 5;
#X obj 52 115 mtof;
#X obj 37 47 t f f, f 25;
#X obj 193 227 pack f 30;
#X obj 193 249 line~;
#X obj 69 478 tabread4~ flute;
#X msg 193 147 0;
#X floatatom 238 148 5 0 0 0 - - -, f 5;
#X obj 138 424 r array;
#X msg 138 446 set \$1;
#X obj 280 124 r durate;
#X obj 280 147 tgl 15 0 empty empty empty 17 7 0 10 -262144 -1 -1 0
1;
#X obj 193 169 spigot 1, f 15;
#X floatatom 68 312 5 0 0 0 - - -, f 5;
#X floatatom 98 380 5 0 0 0 - - -, f 5;
#X floatatom 160 27 5 0 0 0 - - -, f 5;
#X floatatom 118 25 5 0 0 0 - - -, f 5;
#X obj 52 74 r ref-pitch;
#X obj 174 503 *~;
#X obj 264 437 env~;
#X floatatom 264 459 5 0 0 0 - - -, f 5;
#X obj 238 191 / 127;
#X connect 0 0 5 0;
#X connect 1 0 0 0;
#X connect 2 0 3 0;
#X connect 3 0 0 0;
#X connect 4 0 38 0;
#X connect 5 0 8 0;
#X connect 6 0 39 0;
#X connect 7 0 5 1;
#X connect 8 0 30 0;
#X connect 9 0 10 0;
#X connect 10 0 3 1;
#X connect 11 0 10 1;
#X connect 12 0 13 0;
#X connect 13 0 14 0;
#X connect 14 0 15 0;
#X connect 15 0 16 0;
#X connect 15 1 17 1;
#X connect 16 0 17 0;
#X connect 17 0 18 0;
#X connect 18 0 19 0;
#X connect 19 0 2 0;
#X connect 19 1 9 0;
#X connect 19 2 1 0;
#X connect 19 3 11 0;
#X connect 20 0 21 0;
#X connect 21 0 23 0;
#X connect 21 0 41 0;
#X connect 21 1 27 0;
#X connect 21 1 40 0;
#X connect 22 0 31 0;
#X connect 22 1 32 0;
#X connect 23 0 12 0;
#X connect 25 0 26 0;
#X connect 26 0 14 1;
#X connect 27 0 23 1;
#X connect 27 1 22 0;
#X connect 28 0 29 0;
#X connect 29 0 43 1;
#X connect 30 0 43 0;
#X connect 31 0 37 0;
#X connect 32 0 46 0;
#X connect 33 0 34 0;
#X connect 34 0 30 0;
#X connect 35 0 36 0;
#X connect 36 0 37 1;
#X connect 37 0 28 0;
#X connect 38 0 9 1;
#X connect 39 0 7 0;
#X connect 42 0 25 0;
#X connect 43 0 24 0;
#X connect 44 0 45 0;
#X connect 46 0 28 0;
