#N canvas 162 293 458 412 10;
#X obj 52 221 osc~ 440;
#X obj 164 320 *~;
#X obj 161 363 dac~;
#X floatatom 179 140 5 0 0 0 - - -, f 5;
#X obj 179 161 t b b f, f 16;
#X msg 179 206 1;
#X obj 225 242 pack;
#X floatatom 293 204 5 0 0 0 - - -, f 5;
#X obj 225 198 del 1000;
#X obj 225 264 line~;
#X msg 54 61 0;
#X msg 86 61 1;
#X msg 117 61 5;
#X msg 149 61 10;
#X msg 181 61 15;
#X msg 212 61 20;
#X msg 244 61 25;
#X msg 275 61 30;
#X msg 307 61 50;
#X msg 339 62 100;
#X text 49 20 Try starting at 0 and determine when your perception
of clicking dissapears.;
#X text 251 338 write your answer here:;
#X msg 225 220 0 30;
#X connect 0 0 1 0;
#X connect 1 0 2 0;
#X connect 1 0 2 1;
#X connect 3 0 4 0;
#X connect 4 0 5 0;
#X connect 4 1 8 0;
#X connect 4 2 7 0;
#X connect 5 0 6 0;
#X connect 6 0 9 0;
#X connect 7 0 6 1;
#X connect 8 0 22 0;
#X connect 9 0 1 1;
#X connect 10 0 3 0;
#X connect 11 0 3 0;
#X connect 12 0 3 0;
#X connect 13 0 3 0;
#X connect 14 0 3 0;
#X connect 15 0 3 0;
#X connect 16 0 3 0;
#X connect 17 0 3 0;
#X connect 18 0 3 0;
#X connect 19 0 3 0;
#X connect 22 0 6 0;
