#N canvas 467 313 1372 646 10;
#X floatatom 29 45 5 0 0 0 - - -, f 5;
#X obj 29 63 send apples;
#X obj 16 115 receive apples;
#X floatatom 16 134 5 0 0 0 - - -, f 5;
#X obj 51 160 receive apples;
#X floatatom 51 180 5 0 0 0 - - -, f 5;
#X floatatom 147 130 5 0 0 0 - - -, f 5;
#X floatatom 182 175 5 0 0 0 - - -, f 5;
#X floatatom 146 44 5 0 0 0 - - -, f 5;
#X obj 146 62 s apples;
#X obj 147 110 r apples;
#X obj 182 156 r apples;
#N canvas 1016 718 450 300 myownsecrtetpatch 0;
#X floatatom 149 73 5 0 0 0 - - -, f 5;
#X floatatom 176 158 5 0 0 0 - - -, f 5;
#X obj 39 16 inlet;
#X obj 62 239 outlet;
#X restore 380 63 pd myownsecrtetpatch;
#X text 509 63 <- this is a subpatch;
#X text 38 15 send and receive;
#X text 402 23 subpatches;
#X connect 0 0 1 0;
#X connect 2 0 3 0;
#X connect 4 0 5 0;
#X connect 8 0 9 0;
#X connect 10 0 6 0;
#X connect 11 0 7 0;
