#N canvas 878 262 846 806 10;
#X obj 54 19 inlet;
#X text 91 16 incoming velocity (0-127);
#X obj 55 62 sel 0, f 16;
#X msg 27 156 0;
#X obj 27 184 pack, f 7;
#X obj 66 155 r R;
#X obj 129 305 line~;
#X text 164 77 1 - 127;
#X obj 152 94 / 127;
#X obj 152 118 t b b f, f 28;
#X text 46 135 release;
#X text 244 136 attack;
#X msg 236 159 1;
#X obj 235 181 pack;
#X obj 269 160 r A;
#X obj 154 210 f;
#X obj 152 149 del;
#X obj 180 149 r A;
#X obj 154 244 pack, f 6;
#X obj 186 220 r D;
#X msg 104 126 stop;
#X obj 134 356 outlet~;
#X obj 182 172 r S;
#X obj 134 332 *~, f 26;
#X obj 182 191 dbtorms;
#X connect 0 0 2 0;
#X connect 2 0 3 0;
#X connect 2 0 20 0;
#X connect 2 1 8 0;
#X connect 3 0 4 0;
#X connect 4 0 6 0;
#X connect 5 0 4 1;
#X connect 6 0 23 0;
#X connect 8 0 9 0;
#X connect 9 0 16 0;
#X connect 9 1 12 0;
#X connect 9 2 23 1;
#X connect 12 0 13 0;
#X connect 13 0 6 0;
#X connect 14 0 13 1;
#X connect 15 0 18 0;
#X connect 16 0 15 0;
#X connect 17 0 16 1;
#X connect 18 0 6 0;
#X connect 19 0 18 1;
#X connect 20 0 16 0;
#X connect 22 0 24 0;
#X connect 23 0 21 0;
#X connect 24 0 15 1;
