#N canvas 144 132 1213 653 10;
#N canvas 67 89 963 666 guts 0;
#X obj 68 238 catch~ sum;
#X obj 71 308 dac~;
#X obj 54 5 notein;
#X obj 54 34 pack;
#X obj 54 111 pack f f f;
#X text 186 113 list: voice no. \, pitch \, velocity;
#X msg 53 133 \; voice-\$1 \$2 \$3;
#X text 164 61 poly outputs voice numbers numbered 1 through n;
#X text 172 182 clone objects create n copies of an abstraction numbered
0 through n-1, f 36;
#X obj 54 86 - 1;
#X obj 54 61 poly 32 1;
#X obj 53 193 clone voice 32;
#X obj 68 271 /~ 32;
#X connect 0 0 12 0;
#X connect 2 0 3 0;
#X connect 2 1 3 1;
#X connect 3 0 10 0;
#X connect 4 0 6 0;
#X connect 9 0 4 0;
#X connect 10 0 9 0;
#X connect 10 1 4 1;
#X connect 10 2 4 2;
#X connect 12 0 1 0;
#X connect 12 0 1 1;
#X restore 56 35 pd guts;
#N canvas 67 89 405 178 presets 0;
#X msg 284 35 \; A 30 \; D 100 \; S 93 \; R 100 \; max-index 12 \;
hr 1 \;;
#X msg 163 35 \; A 30 \; D 100 \; S 93 \; R 3000 \; max-index 5 \;
hr 0.5 \;;
#X msg 43 36 \; A 30 \; D 100 \; S 93 \; R 100 \; max-index 5 \; hr
0.125 \;;
#X restore 56 60 pd presets;
#X obj 215 96 cnv 15 500 120 empty empty empty 20 12 0 14 -260097 -66577
0;
#X msg 463 14 30 200 96 800;
#X obj 463 34 unpack f f f f;
#X obj 259 233 s A;
#X obj 287 234 s D;
#X obj 314 234 s S;
#X obj 341 234 s R;
#X obj 403 147 s max-index;
#X floatatom 320 121 5 0 0 0 - - -, f 5;
#X floatatom 322 145 5 0 0 0 - - -, f 5;
#X obj 482 146 s hr;
#X floatatom 241 192 5 0 0 0 - - -, f 5;
#X floatatom 285 190 5 0 0 0 - - -, f 5;
#X floatatom 334 190 5 0 0 0 - - -, f 5;
#X floatatom 383 190 5 0 0 0 - - -, f 5;
#X text 228 122 Max Index;
#X text 228 144 Harmonic Ratio;
#X text 260 97 FM Polyphonic Synth;
#X text 239 169 A (ms);
#X text 281 169 D (ms);
#X text 331 170 S (dB);
#X text 381 171 R (ms);
#X obj 246 56 r max-index;
#X obj 325 54 r hr;
#X obj 105 92 r A;
#X obj 106 140 r D;
#X obj 106 180 r S;
#X obj 106 221 r R;
#X msg 105 115 set \$1;
#X msg 106 160 set \$1;
#X msg 106 199 set \$1;
#X msg 106 241 set \$1;
#X msg 246 75 set \$1;
#X msg 325 74 set \$1;
#X connect 3 0 4 0;
#X connect 4 0 5 0;
#X connect 4 1 6 0;
#X connect 4 2 7 0;
#X connect 4 3 8 0;
#X connect 10 0 9 0;
#X connect 11 0 12 0;
#X connect 13 0 5 0;
#X connect 14 0 6 0;
#X connect 15 0 7 0;
#X connect 16 0 8 0;
#X connect 24 0 34 0;
#X connect 25 0 35 0;
#X connect 26 0 30 0;
#X connect 27 0 31 0;
#X connect 28 0 32 0;
#X connect 29 0 33 0;
#X connect 34 0 10 0;
#X connect 35 0 11 0;
