#N canvas 1100 166 796 990 10;
#X obj 327 278 adsr~;
#X obj 125 369 osc~;
#X obj 126 403 *~;
#X obj 128 434 throw~ sum;
#X obj 148 247 osc~;
#X obj 148 275 *~;
#X obj 69 325 +~;
#X floatatom 68 98 5 0 0 0 - - -, f 5;
#X floatatom 148 225 5 0 0 0 - - -, f 5;
#X text 44 98 cf;
#X text 180 224 mf;
#X obj 252 202 *~;
#X obj 252 159 r max-index;
#X floatatom 252 178 5 0 0 0 - - -, f 5;
#X text 333 298 r: 0 to 1;
#X text 251 219 r:0-10;
#X obj 68 30 unpack, f 47;
#X text 9 55 pitch;
#X text 299 48 velocity (0-127);
#X obj 68 50 mtof;
#X obj 148 63 r hr;
#X floatatom 147 84 5 0 0 0 - - -, f 5;
#X obj 146 160 *;
#X obj 147 103 t b f;
#X obj 227 237 *~;
#X obj 68 11 r voice-\$1;
#X connect 0 0 2 1;
#X connect 0 0 11 1;
#X connect 1 0 2 0;
#X connect 2 0 3 0;
#X connect 4 0 5 0;
#X connect 5 0 6 1;
#X connect 6 0 1 0;
#X connect 7 0 6 0;
#X connect 7 0 22 0;
#X connect 8 0 4 0;
#X connect 11 0 24 1;
#X connect 12 0 13 0;
#X connect 13 0 11 0;
#X connect 16 0 19 0;
#X connect 16 1 0 0;
#X connect 19 0 7 0;
#X connect 20 0 21 0;
#X connect 21 0 23 0;
#X connect 22 0 8 0;
#X connect 22 0 24 0;
#X connect 23 0 22 0;
#X connect 23 1 22 1;
#X connect 24 0 5 1;
#X connect 25 0 16 0;
