#N canvas 232 105 1142 968 10;
#X obj 171 19 notein;
#X floatatom 151 67 5 0 0 0 - - -, f 5;
#X floatatom 199 66 5 0 0 0 - - -, f 5;
#X text 150 48 pitch;
#X text 205 47 vel;
#X obj 159 121 poly 1 1;
#X obj 159 97 pack;
#X floatatom 145 155 5 0 0 0 - - -, f 5;
#X floatatom 227 143 5 0 0 0 - - -, f 5;
#X obj 124 252 vcf~ 100;
#X obj 89 155 noise~;
#X obj 145 174 mtof;
#X obj 115 359 dac~;
#X text 345 149 attack 5ms;
#X text 354 166 decay 500ms;
#X obj 227 161 / 127;
#X floatatom 227 181 5 0 0 0 - - -, f 5;
#X obj 227 199 sel 0;
#X msg 206 235 0 500;
#X obj 128 319 *~;
#X obj 234 277 line~;
#X floatatom 266 225 5 0 0 0 - - -, f 5;
#X obj 266 243 pack f 5;
#X floatatom 322 215 5 0 0 0 - - -, f 5;
#X obj 147 221 line~;
#X obj 129 283 *~ 2;
#X obj 145 193 pack f 1000;
#X connect 0 0 1 0;
#X connect 0 1 2 0;
#X connect 1 0 6 0;
#X connect 2 0 6 1;
#X connect 5 1 7 0;
#X connect 5 2 8 0;
#X connect 6 0 5 0;
#X connect 7 0 11 0;
#X connect 8 0 15 0;
#X connect 9 0 25 0;
#X connect 10 0 9 0;
#X connect 11 0 26 0;
#X connect 15 0 16 0;
#X connect 16 0 17 0;
#X connect 17 0 18 0;
#X connect 17 1 21 0;
#X connect 18 0 20 0;
#X connect 19 0 12 0;
#X connect 19 0 12 1;
#X connect 20 0 19 1;
#X connect 21 0 22 0;
#X connect 22 0 20 0;
#X connect 23 0 22 1;
#X connect 24 0 9 1;
#X connect 25 0 19 0;
#X connect 26 0 24 0;
