#N canvas 78 22 534 534 10;
#X declare -path ./lib;
#X obj 63 24 noise~;
#X obj 26 361 declare -path ./lib;
#X obj 245 302 graph_spectrum_2.5k;
#X obj 242 62 graph_spectrum_2.5k;
#X obj 241 15 r~ signal;
#X obj 241 37 *~ 10;
#X obj 245 278 *~ 10;
#X floatatom 114 146 5 0 0 0 - - -, f 5;
#X floatatom 291 280 5 0 0 0 - - -, f 5;
#X obj 63 260 *~;
#X obj 97 262 tgl 15 0 empty empty empty 17 7 0 10 -262144 -1 -1 0
1;
#X obj 78 217 s~ processed;
#X obj 245 257 r~ processed;
#X floatatom 284 38 5 0 0 0 - - -, f 5;
#X obj 326 34 r k;
#X obj 331 277 r k;
#X floatatom 478 20 5 0 0 0 - - -, f 5;
#X obj 478 39 s k;
#X obj 63 303 dac~;
#X text 102 128 cutoff frequency;
#X text 150 145 Hz;
#X obj 77 57 s~ signal;
#X obj 63 184 hip~ 1000;
#X connect 0 0 21 0;
#X connect 0 0 22 0;
#X connect 4 0 5 0;
#X connect 5 0 3 0;
#X connect 6 0 2 0;
#X connect 7 0 22 1;
#X connect 8 0 6 1;
#X connect 9 0 18 0;
#X connect 9 0 18 1;
#X connect 10 0 9 1;
#X connect 12 0 6 0;
#X connect 13 0 5 1;
#X connect 14 0 13 0;
#X connect 15 0 8 0;
#X connect 16 0 17 0;
#X connect 22 0 9 0;
#X connect 22 0 11 0;
