#N canvas 0 53 1024 715 10;
#X declare -path ./lib;
#X obj 87 37 noise~;
#X obj 128 113 s~ signal;
#X obj 129 138 r~ signal;
#X obj 87 59 *~;
#X obj 115 61 tgl 15 0 empty empty empty 17 7 0 10 -262144 -1 -1 0
1;
#X obj 145 60 *~;
#X obj 173 62 tgl 15 0 empty empty empty 17 7 0 10 -262144 -1 -1 0
1;
#X obj 56 449 declare -path ./lib;
#X obj 465 306 graph_spectrum_2.5k;
#X obj 462 66 graph_spectrum_2.5k;
#X obj 297 62 *~;
#X obj 325 64 tgl 15 0 empty empty empty 17 7 0 10 -262144 -1 -1 0
1;
#X obj 297 40 adc~;
#X obj 461 19 r~ signal;
#X obj 461 41 *~ 10;
#X obj 465 282 *~ 10;
#X floatatom 511 284 5 0 0 0 - - -, f 5;
#X obj 130 311 s~ processed;
#X obj 465 261 r~ processed;
#X floatatom 504 42 5 0 0 0 - - -, f 5;
#X obj 546 38 r k;
#X obj 551 281 r k;
#X floatatom 382 75 5 0 0 0 - - -, f 5;
#X obj 382 94 s k;
#X obj 199 423 *~;
#X obj 239 422 tgl 15 0 empty empty empty 17 7 0 10 -262144 -1 -1 1
1;
#X obj 197 398 r~ processed;
#X obj 224 462 dac~;
#X obj 130 243 bp~, f 8;
#X floatatom 152 178 5 0 0 0 - - -, f 5;
#X floatatom 175 209 5 0 0 0 - - -, f 5;
#X obj 130 276 *~ 1;
#X floatatom 164 278 5 0 0 0 - - -, f 5;
#X obj 284 424 *~;
#X obj 324 423 tgl 15 0 empty empty empty 17 7 0 10 -262144 -1 -1 0
1;
#X obj 282 399 r~ signal;
#X text 200 277 amplitude;
#X text 211 210 q \, bandwidth;
#X text 190 178 central frequency;
#X floatatom 144 15 5 0 0 0 - - -, f 5;
#X obj 336 248 osc~ 440;
#X obj 336 265 *~ 0.02;
#X obj 326 301 dac~;
#X obj 145 38 phasor~ 300;
#X connect 0 0 3 0;
#X connect 2 0 28 0;
#X connect 3 0 1 0;
#X connect 4 0 3 1;
#X connect 5 0 1 0;
#X connect 6 0 5 1;
#X connect 10 0 1 0;
#X connect 11 0 10 1;
#X connect 12 0 10 0;
#X connect 13 0 14 0;
#X connect 14 0 9 0;
#X connect 15 0 8 0;
#X connect 16 0 15 1;
#X connect 18 0 15 0;
#X connect 19 0 14 1;
#X connect 20 0 19 0;
#X connect 21 0 16 0;
#X connect 22 0 23 0;
#X connect 24 0 27 0;
#X connect 24 0 27 1;
#X connect 25 0 24 1;
#X connect 26 0 24 0;
#X connect 28 0 31 0;
#X connect 29 0 28 1;
#X connect 30 0 28 2;
#X connect 31 0 17 0;
#X connect 32 0 31 1;
#X connect 33 0 27 0;
#X connect 33 0 27 1;
#X connect 34 0 33 1;
#X connect 35 0 33 0;
#X connect 39 0 43 0;
#X connect 40 0 41 0;
#X connect 43 0 5 0;
