#N canvas 75 81 716 625 10;
#X declare -path ./lib;
#X obj 144 40 noise~;
#X obj 144 62 *~;
#X obj 172 64 tgl 15 0 empty empty empty 17 7 0 10 -262144 -1 -1 0
1;
#X obj 202 63 *~;
#X obj 230 65 tgl 15 0 empty empty empty 17 7 0 10 -262144 -1 -1 1
1;
#X obj 153 558 declare -path ./lib;
#X obj 430 49 r~ signal;
#X obj 430 71 *~ 10;
#X obj 434 312 *~ 10;
#X floatatom 480 314 5 0 0 0 - - -, f 5;
#X obj 202 360 s~ processed;
#X obj 434 291 r~ processed;
#X floatatom 473 72 5 0 0 0 - - -, f 5;
#X obj 515 68 r k;
#X obj 520 311 r k;
#X floatatom 606 50 5 0 0 0 - - -, f 5;
#X obj 606 69 s k;
#X obj 159 481 *~;
#X obj 174 463 tgl 15 0 empty empty empty 17 7 0 10 -262144 -1 -1 1
1;
#X obj 159 439 r~ processed;
#X obj 193 530 dac~;
#X obj 202 339 *~ 1;
#X floatatom 236 341 5 0 0 0 - - -, f 5;
#X obj 244 482 *~;
#X obj 259 464 tgl 15 0 empty empty empty 17 7 0 10 -262144 -1 -1 0
1;
#X obj 244 440 r~ signal;
#X text 272 340 amplitude;
#X obj 202 311 vcf~, f 6;
#X floatatom 251 259 5 0 0 0 - - -, f 5;
#X obj 230 217 +~ 100;
#X floatatom 230 123 5 0 0 0 - - -, f 5;
#X text 276 218 frequency;
#X text 289 259 q (bandwidth);
#X obj 431 96 graph_spectrum_5k;
#N canvas 0 50 306 308 waveform 0;
#X obj 29 73 graph_one;
#X obj 30 47 *~ 10;
#X floatatom 76 49 5 0 0 0 - - -, f 5;
#X obj 30 26 r~ processed;
#X obj 116 46 r k;
#X connect 1 0 0 0;
#X connect 2 0 1 1;
#X connect 3 0 1 0;
#X connect 4 0 2 0;
#X restore 154 579 pd waveform;
#X obj 227 99 s~ signal;
#X text 27 169 bp and vcf are both band pass filters, f 20;
#X obj 230 165 +~ 1;
#X obj 230 143 osc~ 0.2;
#X obj 202 41 phasor~ 500;
#X obj 230 195 *~ 4000;
#X obj 434 336 graph_spectrum_5k;
#X connect 0 0 1 0;
#X connect 1 0 27 0;
#X connect 1 0 35 0;
#X connect 2 0 1 1;
#X connect 3 0 27 0;
#X connect 3 0 35 0;
#X connect 4 0 3 1;
#X connect 6 0 7 0;
#X connect 7 0 33 0;
#X connect 8 0 41 0;
#X connect 9 0 8 1;
#X connect 11 0 8 0;
#X connect 12 0 7 1;
#X connect 13 0 12 0;
#X connect 14 0 9 0;
#X connect 15 0 16 0;
#X connect 17 0 20 0;
#X connect 17 0 20 1;
#X connect 18 0 17 1;
#X connect 19 0 17 0;
#X connect 21 0 10 0;
#X connect 22 0 21 1;
#X connect 23 0 20 0;
#X connect 23 0 20 1;
#X connect 24 0 23 1;
#X connect 25 0 23 0;
#X connect 27 0 21 0;
#X connect 28 0 27 2;
#X connect 29 0 27 1;
#X connect 30 0 38 0;
#X connect 37 0 40 0;
#X connect 38 0 37 0;
#X connect 39 0 3 0;
#X connect 40 0 29 0;
