#N canvas 67 180 1606 736 10;
#X obj 100 202 osc~;
#X floatatom 12 83 5 0 0 0 - - -, f 5;
#X obj 100 156 * 1;
#X floatatom 100 178 5 0 0 0 - - -, f 5;
#X obj 176 202 osc~;
#X floatatom 176 178 5 0 0 0 - - -, f 5;
#X obj 462 296 +~;
#X obj 462 316 /~ 8;
#X obj 250 204 osc~;
#X floatatom 250 180 5 0 0 0 - - -, f 5;
#X obj 326 204 osc~;
#X floatatom 326 180 5 0 0 0 - - -, f 5;
#X obj 398 203 osc~;
#X floatatom 398 179 5 0 0 0 - - -, f 5;
#X obj 474 203 osc~;
#X floatatom 474 179 5 0 0 0 - - -, f 5;
#X obj 549 202 osc~;
#X floatatom 549 178 5 0 0 0 - - -, f 5;
#X obj 625 202 osc~;
#X floatatom 625 178 5 0 0 0 - - -, f 5;
#X obj 326 158 * 4;
#X obj 398 157 * 5;
#X obj 474 157 * 6;
#X obj 549 156 * 7;
#X obj 625 156 * 8;
#X obj 266 242 *~;
#X obj 192 240 *~;
#X obj 116 240 *~;
#X obj 342 242 *~;
#X obj 414 241 *~;
#X obj 490 241 *~;
#X obj 565 240 *~;
#X obj 641 240 *~;
#X obj 250 158 * 3;
#X obj 176 156 * 2;
#X text 44 83 Hz;
#X text 491 298 Add up all signals;
#X obj 12 32 inlet;
#X obj 12 57 mtof;
#X obj 462 336 outlet~;
#X obj 202 24 r h1;
#X obj 202 68 pack f 30;
#X obj 202 90 line~;
#X obj 277 68 pack f 30;
#X obj 277 90 line~;
#X obj 277 24 r h2;
#X obj 350 68 pack f 30;
#X obj 350 90 line~;
#X obj 426 68 pack f 30;
#X obj 426 90 line~;
#X obj 350 24 r h3;
#X obj 426 24 r h4;
#X obj 497 68 pack f 30;
#X obj 497 90 line~;
#X obj 573 68 pack f 30;
#X obj 573 90 line~;
#X obj 646 67 pack f 30;
#X obj 646 89 line~;
#X obj 721 67 pack f 30;
#X obj 721 89 line~;
#X obj 497 24 r h5;
#X obj 573 24 r h6;
#X obj 646 24 r h7;
#X obj 721 24 r h8;
#X floatatom 202 47 5 0 0 0 - - -, f 5;
#X floatatom 277 47 5 0 0 0 - - -, f 5;
#X floatatom 350 47 5 0 0 0 - - -, f 5;
#X floatatom 426 47 5 0 0 0 - - -, f 5;
#X floatatom 497 47 5 0 0 0 - - -, f 5;
#X floatatom 573 47 5 0 0 0 - - -, f 5;
#X floatatom 646 47 5 0 0 0 - - -, f 5;
#X floatatom 721 47 5 0 0 0 - - -, f 5;
#X connect 0 0 27 0;
#X connect 1 0 2 0;
#X connect 1 0 20 0;
#X connect 1 0 21 0;
#X connect 1 0 22 0;
#X connect 1 0 23 0;
#X connect 1 0 24 0;
#X connect 1 0 33 0;
#X connect 1 0 34 0;
#X connect 2 0 3 0;
#X connect 3 0 0 0;
#X connect 4 0 26 0;
#X connect 5 0 4 0;
#X connect 6 0 7 0;
#X connect 7 0 39 0;
#X connect 8 0 25 0;
#X connect 9 0 8 0;
#X connect 10 0 28 0;
#X connect 11 0 10 0;
#X connect 12 0 29 0;
#X connect 13 0 12 0;
#X connect 14 0 30 0;
#X connect 15 0 14 0;
#X connect 16 0 31 0;
#X connect 17 0 16 0;
#X connect 18 0 32 0;
#X connect 19 0 18 0;
#X connect 20 0 11 0;
#X connect 21 0 13 0;
#X connect 22 0 15 0;
#X connect 23 0 17 0;
#X connect 24 0 19 0;
#X connect 25 0 6 0;
#X connect 26 0 6 0;
#X connect 27 0 6 0;
#X connect 28 0 6 0;
#X connect 29 0 6 1;
#X connect 30 0 6 1;
#X connect 31 0 6 1;
#X connect 32 0 6 1;
#X connect 33 0 9 0;
#X connect 34 0 5 0;
#X connect 37 0 38 0;
#X connect 38 0 1 0;
#X connect 40 0 64 0;
#X connect 41 0 42 0;
#X connect 42 0 27 1;
#X connect 43 0 44 0;
#X connect 44 0 26 1;
#X connect 45 0 65 0;
#X connect 46 0 47 0;
#X connect 47 0 25 1;
#X connect 48 0 49 0;
#X connect 49 0 28 1;
#X connect 50 0 66 0;
#X connect 51 0 67 0;
#X connect 52 0 53 0;
#X connect 53 0 29 1;
#X connect 54 0 55 0;
#X connect 55 0 30 1;
#X connect 56 0 57 0;
#X connect 57 0 31 1;
#X connect 58 0 59 0;
#X connect 59 0 32 1;
#X connect 60 0 68 0;
#X connect 61 0 69 0;
#X connect 62 0 70 0;
#X connect 63 0 71 0;
#X connect 64 0 41 0;
#X connect 65 0 43 0;
#X connect 66 0 46 0;
#X connect 67 0 48 0;
#X connect 68 0 52 0;
#X connect 69 0 54 0;
#X connect 70 0 56 0;
#X connect 71 0 58 0;
