#N canvas 2298 167 745 719 10;
#X obj 67 9 inlet;
#X text 104 6 incoming velocity (0-127);
#X obj 68 36 sel 0, f 16;
#X obj 149 282 line~;
#X obj 161 68 / 127;
#X obj 161 92 t b b f, f 28;
#X msg 244 192 1;
#X obj 244 214 pack;
#X obj 277 193 r A;
#X obj 149 330 outlet~;
#X obj 149 306 *~, f 30;
#X text 171 35 NOTE ON;
#X text 13 35 NOTE OFF;
#X text 169 50 r: 1-127;
#X text 252 169 attack:;
#X obj 161 191 f;
#X obj 161 130 del;
#X obj 189 130 r A;
#X obj 161 214 pack, f 6;
#X obj 207 213 r D;
#X obj 176 151 r S;
#X obj 176 171 dbtorms;
#X text 168 110 decay:;
#X obj 68 68 t b b, f 7;
#X msg 108 92 stop;
#X msg 68 133 0;
#X obj 68 155 pack, f 6;
#X obj 101 133 r R;
#X connect 0 0 2 0;
#X connect 2 0 23 0;
#X connect 2 1 4 0;
#X connect 3 0 10 0;
#X connect 4 0 5 0;
#X connect 5 0 16 0;
#X connect 5 1 6 0;
#X connect 5 2 10 1;
#X connect 6 0 7 0;
#X connect 7 0 3 0;
#X connect 8 0 7 1;
#X connect 10 0 9 0;
#X connect 15 0 18 0;
#X connect 16 0 15 0;
#X connect 17 0 16 1;
#X connect 18 0 3 0;
#X connect 19 0 18 1;
#X connect 20 0 21 0;
#X connect 21 0 15 1;
#X connect 23 0 25 0;
#X connect 23 1 24 0;
#X connect 24 0 16 0;
#X connect 25 0 26 0;
#X connect 26 0 3 0;
#X connect 27 0 26 1;
