#N canvas 97 89 910 611 10;
#X obj 56 63 bng 15 250 50 0 empty empty empty 17 7 0 10 -262144 -1
-1;
#X floatatom 100 60 5 0 0 0 - - -, f 5;
#X floatatom 73 129 5 0 0 0 - - -, f 5;
#X text 97 92 <- float storage, f 8;
#X obj 73 92 f;
#X obj 210 63 bng 15 250 50 0 empty empty empty 17 7 0 10 -262144 -1
-1;
#X floatatom 246 85 5 0 0 0 - - -, f 5;
#X floatatom 222 148 5 0 0 0 - - -, f 5;
#X obj 222 124 f;
#X obj 286 131 + 1;
#X text 228 60 STEP;
#X text 279 83 SEED;
#X obj 216 217 bng 15 250 50 0 empty empty empty 17 7 0 10 -262144
-1 -1;
#X obj 216 237 f;
#X obj 245 237 + 1;
#X floatatom 216 259 5 0 0 0 - - -, f 5;
#X obj 288 218 bng 15 250 50 0 empty empty empty 17 7 0 10 -262144
-1 -1;
#X obj 288 238 f;
#X obj 316 237 + 1;
#X text 37 29 1) storing numbers;
#X floatatom 302 105 5 0 0 0 - - -, f 5;
#X text 207 29 2) A Counter:;
#X text 337 103 <- Step size & direction, f 12;
#X text 207 177 Abbreviated ways of writing a counter, f 20;
#X connect 0 0 4 0;
#X connect 1 0 4 1;
#X connect 4 0 2 0;
#X connect 5 0 8 0;
#X connect 6 0 8 1;
#X connect 7 0 9 0;
#X connect 8 0 7 0;
#X connect 9 0 8 1;
#X connect 12 0 13 0;
#X connect 13 0 14 0;
#X connect 13 0 15 0;
#X connect 14 0 13 1;
#X connect 16 0 17 0;
#X connect 17 0 18 0;
#X connect 18 0 17 1;
#X connect 20 0 9 1;
