#N canvas 238 30 585 344 10;
#X obj 305 106 tgl 15 0 empty empty empty 17 7 0 10 -262144 -1 -1 1
1;
#X floatatom 166 -2 5 0 0 0 - - -;
#X obj -24 -30 inlet~;
#X obj 106 21 metro 100;
#X obj 261 -15 loadbang;
#X msg 261 6 1;
#X msg -226 33 const 0;
#X obj 57 42 tabwrite~ \$0-one;
#X obj -226 54 s \$0-one;
#N canvas 0 22 450 300 (subpatch) 0;
#X array \$0-spectrum 264 float 0;
#X coords 0 0.51 263 -0.008 200 130 1;
#X restore 123 130 graph;
#X text 112 258 0;
#X obj 283 106 bng 15 250 50 0 empty empty empty 17 7 0 10 -262144
-1 -1;
#X obj -246 146 rfft~;
#X obj -246 179 *~;
#X obj -215 179 *~;
#X obj -246 209 sqrt~;
#X obj -246 235 biquad~ 0 0 0 0 1;
#X text -182 147 Fourier series;
#X text -177 200 magnitude;
#X text -179 185 calculate;
#X obj -246 259 /~ 4096;
#X obj -245 290 tabwrite~ \$0-spectrum;
#X text 99 124 0.5;
#X obj -227 3 block~ 2048 1;
#X text 260 255 |;
#X text 277 255 |;
#X text 243 255 |;
#X text 260 270 4;
#X text 225 255 |;
#X text 225 270 3;
#X text 208 255 |;
#X text 190 255 |;
#X text 172 255 |;
#X text 154 255 |;
#X text 137 255 |;
#X text 154 270 1;
#X text 190 270 2;
#X text 296 255 |;
#X text 296 270 5;
#X text 314 255 |;
#X text 117 269 khz;
#X text 106 185 a;
#X connect 0 0 3 0;
#X connect 1 0 3 1;
#X connect 2 0 7 0;
#X connect 2 0 12 0;
#X connect 3 0 7 0;
#X connect 3 0 21 0;
#X connect 4 0 5 0;
#X connect 5 0 0 0;
#X connect 6 0 8 0;
#X connect 11 0 7 0;
#X connect 12 0 13 0;
#X connect 12 0 13 1;
#X connect 12 1 14 0;
#X connect 12 1 14 1;
#X connect 13 0 15 0;
#X connect 14 0 15 0;
#X connect 15 0 16 0;
#X connect 16 0 20 0;
#X connect 20 0 21 0;
#X coords 0 -1 1 1 225 190 1 100 100;
