#N canvas 0 22 337 202 10;
#X obj 44 27 r \$1-testmessage;
#X floatatom 44 49 5 0 0 0 - - -, f 5;
#X obj 44 68 outlet;
#X obj 183 89 f \$1;
#X obj 183 27 bng 15 250 50 0 empty empty empty 17 7 0 10 -262144 -1
-1;
#X floatatom 183 111 5 0 0 0 - - -, f 5;
#X text 205 25 bang to get abstraction argument, f 12;
#X connect 0 0 1 0;
#X connect 1 0 2 0;
#X connect 3 0 5 0;
#X connect 4 0 3 0;
