#N canvas 800 196 398 466 10;
#X obj 43 67 osc~ 440;
#X obj 43 156 *~;
#X obj 43 186 dac~;
#X obj 208 69 osc~ 440;
#X obj 208 158 *~;
#X obj 208 188 dac~;
#X floatatom 289 110 5 0 0 0 - - -, f 5;
#X floatatom 296 68 5 0 0 0 - - -, f 5;
#X obj 289 129 pack f 30;
#X obj 279 153 line~;
#X floatatom 111 111 5 0 0 0 - - -, f 5;
#X obj 111 130 pack f 30;
#X obj 100 154 line~;
#X obj 296 87 dbtorms;
#X obj 48 265 osc~ 440;
#X obj 48 287 env~;
#X floatatom 48 309 5 0 0 0 - - -, f 5;
#X obj 48 330 dbtorms;
#X floatatom 48 352 5 0 0 0 - - -, f 5;
#X text 233 32 logarithmic;
#X text 73 38 linear;
#X connect 0 0 1 0;
#X connect 1 0 2 0;
#X connect 1 0 2 1;
#X connect 3 0 4 0;
#X connect 4 0 5 0;
#X connect 4 0 5 1;
#X connect 6 0 8 0;
#X connect 7 0 13 0;
#X connect 8 0 9 0;
#X connect 9 0 4 1;
#X connect 10 0 11 0;
#X connect 11 0 12 0;
#X connect 12 0 1 1;
#X connect 13 0 6 0;
#X connect 14 0 15 0;
#X connect 15 0 16 0;
#X connect 16 0 17 0;
#X connect 17 0 18 0;
