#N canvas 800 196 460 466 10;
#X obj 64 154 osc~ 440;
#X obj 64 243 *~;
#X obj 64 273 dac~;
#X obj 229 156 osc~ 440;
#X obj 229 245 *~;
#X obj 229 275 dac~;
#X floatatom 310 197 5 0 0 0 - - - 0;
#X floatatom 317 155 5 0 0 0 - - - 0;
#X obj 310 216 pack f 30;
#X obj 300 240 line~;
#X floatatom 132 198 5 0 0 0 - - - 0;
#X obj 132 217 pack f 30;
#X obj 121 241 line~;
#X obj 317 174 dbtorms;
#X obj 40 339 osc~ 440;
#X obj 40 361 env~;
#X floatatom 40 383 5 0 0 0 - - - 0;
#X obj 40 404 dbtorms;
#X floatatom 40 426 5 0 0 0 - - - 0;
#X text 352 154 (0-100db);
#X text 348 198 (0-1);
#X text 121 178 peak amplitude;
#X text 28 18 PEAK Amplitude and linear and logarithmic scales;
#X text 27 310 RMS Amplitude and envelope;
#X text 55 125 linear scale;
#X text 226 121 logarithmic scale;
#X text 43 50 peak amplitude is the maximum or peak amplitude value
in a waveform. Since the output of a sine wave or [osc~] object is
1 \, it's peak amplitude is 1 Thus \, multiplying the output of [osc~]
by any number is controlling its peak amplitude.;
#X text 109 342 [env~] gives you the RMS amplitude of a signal. RMS
or Root Mean Square is a way to get the average amplitude over a period
of time. As you know \, the peak amplitude of a sine wave is 1 \, but
we it's RMS is ~97dB. Notice that env~ is one of the few signal objects
that output control values., f 47;
#X connect 0 0 1 0;
#X connect 1 0 2 0;
#X connect 1 0 2 1;
#X connect 3 0 4 0;
#X connect 4 0 5 0;
#X connect 4 0 5 1;
#X connect 6 0 8 0;
#X connect 7 0 13 0;
#X connect 8 0 9 0;
#X connect 9 0 4 1;
#X connect 10 0 11 0;
#X connect 11 0 12 0;
#X connect 12 0 1 1;
#X connect 13 0 6 0;
#X connect 14 0 15 0;
#X connect 15 0 16 0;
#X connect 16 0 17 0;
#X connect 17 0 18 0;
