#N canvas 57 152 526 512 10;
#X floatatom 61 49 5 0 0 0 - - -, f 5;
#X obj 61 68 send orange;
#X floatatom 180 47 5 0 0 0 - - -, f 5;
#X obj 60 108 receive orange;
#X floatatom 60 130 5 0 0 0 - - -, f 5;
#X obj 180 66 s apple;
#X floatatom 179 130 5 0 0 0 - - -, f 5;
#X obj 179 108 r apple;
#X msg 265 55 \; apple 2;
#X msg 264 95 \; orange 3.14;
#X floatatom 47 198 5 0 0 0 - - -, f 5;
#X obj 48 242 s~ juice;
#X obj 21 295 r~ juice;
#X obj 45 337 dac~;
#X obj 48 220 osc~ 0;
#X obj 101 295 r~ juice;
#X floatatom 203 200 5 0 0 0 - - -, f 5;
#X obj 229 332 dac~;
#X obj 204 222 osc~ 0;
#X floatatom 294 199 5 0 0 0 - - -, f 5;
#X obj 295 221 osc~ 0;
#X obj 204 244 throw~ stuff;
#X obj 295 243 throw~ stuff;
#X obj 246 298 catch~ stuff;
#X text 200 274 many throw~s one catch~;
#X text 24 270 one s~ many r~s;
#X text 164 11 CONTROL;
#X text 172 166 AUDIO;
#X text 267 36 click on these messages;
#X text 208 361 catch~ adds all the audio from all throw~s, f 25;
#X connect 0 0 1 0;
#X connect 2 0 5 0;
#X connect 3 0 4 0;
#X connect 7 0 6 0;
#X connect 10 0 14 0;
#X connect 12 0 13 0;
#X connect 14 0 11 0;
#X connect 15 0 13 1;
#X connect 16 0 18 0;
#X connect 18 0 21 0;
#X connect 19 0 20 0;
#X connect 20 0 22 0;
#X connect 23 0 17 0;
#X connect 23 0 17 1;
