#N canvas 0 81 405 333 10;
#X floatatom 165 133 2 0 0 0 - - -, f 2;
#X obj 165 221 osc~;
#X obj 165 243 *~;
#X obj 165 265 dac~;
#X obj 193 243 tgl 15 0 empty empty empty 17 7 0 10 -262144 -1 -1 0
1;
#X obj 165 199 * 150;
#X text 212 242 get amplitude...;
#X obj 165 41 tgl 15 0 empty empty empty 17 7 0 10 -262144 -1 -1 0
1;
#X obj 165 61 metro 500;
#X obj 165 83 f;
#X obj 196 83 + 1;
#X text 63 131 Listen to the;
#X text 180 133 th harmonic of;
#X text 331 131 Hz;
#X obj 165 105 mod 20;
#X floatatom 288 132 5 0 0 0 - - -, f 5;
#X connect 0 0 5 0;
#X connect 1 0 2 0;
#X connect 2 0 3 0;
#X connect 2 0 3 1;
#X connect 4 0 2 1;
#X connect 5 0 1 0;
#X connect 7 0 8 0;
#X connect 8 0 9 0;
#X connect 9 0 10 0;
#X connect 9 0 14 0;
#X connect 10 0 9 1;
#X connect 14 0 0 0;
#X connect 15 0 5 1;
