#N canvas 650 70 1163 781 12;
#X obj 167 39 notein;
#X floatatom 127 89 5 0 0 0 - - - 0;
#X floatatom 181 89 5 0 0 0 - - - 0;
#X text 53 92 pitch ->;
#X floatatom 91 199 5 0 0 0 - - - 0;
#X obj 91 222 mtof;
#X floatatom 91 246 5 0 0 0 - - - 0;
#X obj 91 269 osc~;
#X obj 146 319 *~;
#X obj 188 283 line~;
#X obj 187 202 / 127;
#X floatatom 187 226 5 0 0 0 - - - 0;
#X obj 188 255 pack f 30;
#X obj 131 350 dac~;
#X text 188 139 arguments: no. of voices \, voice stealing (1 for on)
;
#X text 225 87 <- velocity (range 0 - 127);
#X text 13 138 voice manager;
#X text 130 245 hz;
#X text 233 202 correct range to 0-1;
#X text 239 280 control amplitude;
#X obj 119 137 poly 1 1;
#X connect 0 0 1 0;
#X connect 0 1 2 0;
#X connect 1 0 20 0;
#X connect 2 0 20 1;
#X connect 4 0 5 0;
#X connect 5 0 6 0;
#X connect 6 0 7 0;
#X connect 7 0 8 0;
#X connect 8 0 13 0;
#X connect 8 0 13 1;
#X connect 9 0 8 1;
#X connect 10 0 11 0;
#X connect 11 0 12 0;
#X connect 12 0 9 0;
#X connect 20 1 4 0;
#X connect 20 2 10 0;
