#N canvas 462 226 1263 804 10;
#X obj 93 54 notein;
#X floatatom 81 99 5 0 0 0 - - -, f 5;
#X floatatom 122 98 5 0 0 0 - - -, f 5;
#X obj 160 207 / 127;
#X floatatom 160 228 5 0 0 0 - - -, f 5;
#X obj 88 217 mtof;
#X floatatom 88 238 5 0 0 0 - - -, f 5;
#X obj 160 246 pack f 30;
#X obj 160 267 line~;
#X obj 92 132 pack;
#X obj 92 153 poly 1 1;
#X floatatom 88 198 5 0 0 0 - - -, f 5;
#X floatatom 160 189 5 0 0 0 - - -, f 5;
#X obj 88 259 phasor~;
#X obj 115 351 dac~;
#X text 151 154 voice management;
#X text 140 55 get key information;
#X text 163 99 <- velocity;
#X text 16 98 pitch ->;
#X text 322 121 + faders \, knobs \, and modulation wheel should show
up out of:, f 46;
#X obj 435 137 ctlin;
#X text 323 161 + keys \, pads \, and buttons should show up as:;
#X obj 423 179 notein;
#X text 322 200 + pitch bend wheel in [bendin]:;
#X obj 424 219 bendin;
#X text 306 251 **** Notice that [ctlin] will produce values from 0-127
\; that is also the range for velocity \; bendin will do +/- 8192;
#X text 199 194 adjust range 0-1, f 6;
#X text 304 301 Step 2: start patching!;
#X text 305 64 Step 1: create a midi object (notein \, ctlin \, etc.)
and click on help to see all midi objects and see which knob \, key
\, fader \, or pad outputs what \; globally:;
#X text 304 29 Step 0: Connect your device while Pd is closed. Then
open pd and choose your input device in midi settings.;
#X text 274 16 *;
#X text 274 30 *;
#X text 274 44 *;
#X text 274 58 *;
#X text 274 71 *;
#X text 274 85 *;
#X text 274 99 *;
#X text 274 113 *;
#X text 274 127 *;
#X text 274 141 *;
#X text 274 155 *;
#X text 274 169 *;
#X text 274 182 *;
#X text 274 196 *;
#X text 274 210 *;
#X text 274 224 *;
#X text 274 236 *;
#X text 274 250 *;
#X text 274 264 *;
#X text 274 278 *;
#X text 274 292 *;
#X text 274 305 *;
#X text 274 319 *;
#X text 274 333 *;
#X text 274 347 *;
#X text 72 5 Mopnophonic Keyboard::;
#X obj 126 308 *~;
#X connect 0 0 1 0;
#X connect 0 1 2 0;
#X connect 1 0 9 0;
#X connect 2 0 9 1;
#X connect 3 0 4 0;
#X connect 4 0 7 0;
#X connect 5 0 6 0;
#X connect 6 0 13 0;
#X connect 7 0 8 0;
#X connect 8 0 56 1;
#X connect 9 0 10 0;
#X connect 10 1 11 0;
#X connect 10 2 12 0;
#X connect 11 0 5 0;
#X connect 12 0 3 0;
#X connect 13 0 56 0;
#X connect 56 0 14 0;
#X connect 56 0 14 1;
