#N canvas 0 22 700 410 10;
#X obj 82 133 bng 15 250 50 0 empty empty empty 17 7 0 10 -262144 -1
-1;
#X floatatom 147 65 5 0 0 0 - - -, f 5;
#X obj 70 36 tgl 15 0 empty empty empty 17 7 0 10 -262144 -1 -1 1 1
;
#X text 187 65 time in miliseconds;
#X text 89 36 <- 1 for ON and 0 for OFF;
#X text 101 134 outputs bangs periodically;
#X obj 82 104 metro 5000;
#X connect 1 0 6 1;
#X connect 2 0 6 0;
#X connect 6 0 0 0;
