#N canvas 238 30 585 344 10;
#X obj 305 106 tgl 15 0 empty empty empty 17 7 0 10 -262144 -1 -1 1
1;
#X obj -24 -30 inlet~;
#X obj 261 -15 loadbang;
#X msg 261 6 1;
#X msg -226 33 const 0;
#X obj -226 54 s \$0-one;
#N canvas 0 22 450 300 (subpatch) 0;
#X array \$0-spectrum 256 float 0;
#X coords 0 0.26 255 -0.008 200 130 1;
#X restore 123 130 graph;
#X text 112 258 0;
#X obj 283 106 bng 15 250 50 0 empty empty empty 17 7 0 10 -262144
-1 -1;
#X obj -246 146 rfft~;
#X obj -246 179 *~;
#X obj -215 179 *~;
#X obj -246 209 sqrt~;
#X obj -246 235 biquad~ 0 0 0 0 1;
#X text -182 147 Fourier series;
#X text -177 200 magnitude;
#X text -179 185 calculate;
#X obj -246 259 /~ 4096;
#X obj -245 290 tabwrite~ \$0-spectrum;
#X text 266 255 |;
#X text 285 255 |;
#X text 249 255 |;
#X text 231 255 |;
#X text 212 255 |;
#X text 194 255 |;
#X text 176 255 |;
#X text 158 255 |;
#X text 140 255 |;
#X text 303 255 |;
#X text 118 269 khz;
#X text 106 185 a;
#X text 194 270 1;
#X text 223 270 1.5;
#X text 266 270 2;
#X text 296 270 2.5;
#X text 152 270 0.5;
#X obj 17 38 metro 100;
#X text 122 255 |;
#X obj -227 3 block~ 4096 1;
#X connect 0 0 36 0;
#X connect 1 0 9 0;
#X connect 2 0 3 0;
#X connect 3 0 0 0;
#X connect 4 0 5 0;
#X connect 9 0 10 0;
#X connect 9 0 10 1;
#X connect 9 1 11 0;
#X connect 9 1 11 1;
#X connect 10 0 12 0;
#X connect 11 0 12 0;
#X connect 12 0 13 0;
#X connect 13 0 17 0;
#X connect 17 0 18 0;
#X connect 36 0 18 0;
#X coords 0 -1 1 1 225 190 1 100 100;
