#N canvas 37 33 667 441 10;
#X obj 87 280 *~;
#X obj 105 233 line~;
#X obj 105 212 pack f 100;
#X obj 87 353 +~;
#X obj 87 374 outlet~;
#X obj 105 121 tgl 15 0 empty empty empty 17 7 0 10 -262144 -1 -1 0
1;
#X obj 144 281 *~;
#X obj 162 233 line~;
#X obj 162 190 pack f 100;
#X obj 124 121 tgl 15 0 empty empty empty 17 7 0 10 -262144 -1 -1 0
1;
#X obj 201 281 *~;
#X obj 219 234 line~;
#X obj 219 213 pack f 100;
#X obj 143 121 tgl 15 0 empty empty empty 17 7 0 10 -262144 -1 -1 0
1;
#X obj 258 282 *~;
#X obj 276 234 line~;
#X obj 276 191 pack f 100;
#X obj 162 121 tgl 15 0 empty empty empty 17 7 0 10 -262144 -1 -1 0
1;
#X obj 314 281 *~;
#X obj 332 234 line~;
#X obj 332 213 pack f 100;
#X obj 180 121 tgl 15 0 empty empty empty 17 7 0 10 -262144 -1 -1 0
1;
#X obj 371 282 *~;
#X obj 389 234 line~;
#X obj 389 191 pack f 100;
#X obj 199 121 tgl 15 0 empty empty empty 17 7 0 10 -262144 -1 -1 0
1;
#X obj 87 259 r~ \$1;
#X obj 144 259 r~ \$2;
#X obj 201 259 r~ \$3;
#X obj 258 259 r~ \$4;
#X obj 314 259 r~ \$5;
#X obj 371 259 r~ \$6;
#X obj 424 281 *~;
#X obj 442 234 line~;
#X obj 442 213 pack f 100;
#X obj 481 282 *~;
#X obj 499 234 line~;
#X obj 499 191 pack f 100;
#X obj 538 282 *~;
#X obj 556 235 line~;
#X obj 556 214 pack f 100;
#X obj 219 121 tgl 15 0 empty empty empty 17 7 0 10 -262144 -1 -1 0
1;
#X obj 237 121 tgl 15 0 empty empty empty 17 7 0 10 -262144 -1 -1 0
1;
#X obj 256 121 tgl 15 0 empty empty empty 17 7 0 10 -262144 -1 -1 0
1;
#X obj 424 260 r~ \$7;
#X obj 481 260 r~ \$8;
#X obj 538 260 r~ \$9;
#X connect 0 0 3 0;
#X connect 1 0 0 1;
#X connect 2 0 1 0;
#X connect 3 0 4 0;
#X connect 5 0 2 0;
#X connect 6 0 3 0;
#X connect 7 0 6 1;
#X connect 8 0 7 0;
#X connect 9 0 8 0;
#X connect 10 0 3 0;
#X connect 11 0 10 1;
#X connect 12 0 11 0;
#X connect 13 0 12 0;
#X connect 14 0 3 0;
#X connect 15 0 14 1;
#X connect 16 0 15 0;
#X connect 17 0 16 0;
#X connect 18 0 3 0;
#X connect 19 0 18 1;
#X connect 20 0 19 0;
#X connect 21 0 20 0;
#X connect 22 0 3 0;
#X connect 23 0 22 1;
#X connect 24 0 23 0;
#X connect 25 0 24 0;
#X connect 26 0 0 0;
#X connect 27 0 6 0;
#X connect 28 0 10 0;
#X connect 29 0 14 0;
#X connect 30 0 18 0;
#X connect 31 0 22 0;
#X connect 32 0 3 0;
#X connect 33 0 32 1;
#X connect 34 0 33 0;
#X connect 35 0 3 0;
#X connect 36 0 35 1;
#X connect 37 0 36 0;
#X connect 38 0 3 0;
#X connect 39 0 38 1;
#X connect 40 0 39 0;
#X connect 41 0 34 0;
#X connect 42 0 37 0;
#X connect 43 0 40 0;
#X connect 44 0 32 0;
#X connect 45 0 35 0;
#X connect 46 0 38 0;
#X coords 0 -1 1 1 175 40 1 100 100;
