#N canvas 67 87 1920 976 10;
#X declare -path ./lib;
#X obj 540 74 declare -path ./lib;
#X obj 298 38 graph_one;
#X obj 297 251 graph_spectrum_2.5k;
#X obj 114 253 *~;
#X obj 105 296 dac~;
#X obj 73 171 tgl 15 0 empty empty empty 17 7 0 10 #fcfcfc #000000
#000000 0 1;
#X obj 825 159 /~ 3;
#X obj 795 64 osc~ 250;
#X obj 826 85 osc~ 750;
#X obj 826 107 *~ 1;
#X obj 73 191 * 0.5;
#X obj 903 87 osc~ 2500;
#X obj 903 109 *~ 0.3;
#X obj 37 46 osc~ 250;
#X obj 105 46 osc~ 500;
#X obj 128 120 /~ 1;
#X connect 3 0 4 0;
#X connect 3 0 4 1;
#X connect 5 0 10 0;
#X connect 7 0 6 0;
#X connect 8 0 9 0;
#X connect 9 0 6 0;
#X connect 10 0 3 0;
#X connect 11 0 12 0;
#X connect 12 0 6 0;
#X connect 13 0 15 0;
#X connect 14 0 15 0;
#X connect 15 0 1 0;
#X connect 15 0 2 0;
#X connect 15 0 3 1;
