#N canvas 67 87 1853 993 10;
#X declare -path ./lib;
#X obj 98 25 s~ signal;
#X obj 57 -29 *~;
#X obj 85 -27 tgl 15 0 empty empty empty 17 7 0 10 -262144 -1 -1 0
1;
#X obj 26 361 declare -path ./lib;
#X obj 440 274 graph_spectrum_2.5k;
#X obj 437 34 graph_spectrum_2.5k;
#X obj 436 -13 r~ signal;
#X obj 436 9 *~ 10;
#X obj 440 250 *~ 10;
#X floatatom 486 252 5 0 0 0 - - -, f 5;
#X obj 159 291 s~ processed;
#X obj 440 229 r~ processed;
#X floatatom 479 10 5 0 0 0 - - -, f 5;
#X obj 521 6 r k;
#X obj 526 249 r k;
#X floatatom 372 -4 5 0 0 0 - - -, f 5;
#X obj 372 15 s k;
#X obj 194 352 *~;
#X obj 234 351 tgl 15 0 empty empty empty 17 7 0 10 -262144 -1 -1 1
1;
#X obj 194 325 r~ processed;
#X obj 194 374 dac~;
#X obj 233 104 r~ signal;
#X obj 233 126 lop~ 60;
#X floatatom 284 126 5 0 0 0 - - -, f 5;
#X obj 233 219 *~;
#X obj 267 221 tgl 15 0 empty empty empty 17 7 0 10 -262144 -1 -1 0
1;
#X obj 233 148 lop~ 60;
#X obj 233 170 lop~ 60;
#X obj 233 192 lop~ 60;
#X obj 27 105 r~ signal;
#X obj 27 127 lop~ 60;
#X floatatom 78 127 5 0 0 0 - - -, f 5;
#X obj 27 220 *~;
#X obj 61 222 tgl 15 0 empty empty empty 17 7 0 10 -262144 -1 -1 0
1;
#X obj 121 105 r~ signal;
#X obj 121 127 lop~ 60;
#X floatatom 172 127 5 0 0 0 - - -, f 5;
#X obj 121 220 *~;
#X obj 155 222 tgl 15 0 empty empty empty 17 7 0 10 -262144 -1 -1 0
1;
#X obj 121 149 lop~ 60;
#X obj 129 -28 *~;
#X obj 157 -27 tgl 15 0 empty empty empty 17 7 0 10 -262144 -1 -1 0
1;
#X obj 129 -50 phasor~ 440;
#X obj 57 -51 noise~;
#X connect 1 0 0 0;
#X connect 2 0 1 1;
#X connect 6 0 7 0;
#X connect 7 0 5 0;
#X connect 8 0 4 0;
#X connect 9 0 8 1;
#X connect 11 0 8 0;
#X connect 12 0 7 1;
#X connect 13 0 12 0;
#X connect 14 0 9 0;
#X connect 15 0 16 0;
#X connect 17 0 20 0;
#X connect 17 0 20 1;
#X connect 18 0 17 1;
#X connect 19 0 17 0;
#X connect 21 0 22 0;
#X connect 22 0 26 0;
#X connect 23 0 22 1;
#X connect 23 0 26 1;
#X connect 23 0 27 1;
#X connect 23 0 28 1;
#X connect 24 0 10 0;
#X connect 25 0 24 1;
#X connect 26 0 27 0;
#X connect 27 0 28 0;
#X connect 28 0 24 0;
#X connect 29 0 30 0;
#X connect 30 0 32 0;
#X connect 31 0 30 1;
#X connect 32 0 10 0;
#X connect 33 0 32 1;
#X connect 34 0 35 0;
#X connect 35 0 39 0;
#X connect 36 0 35 1;
#X connect 36 0 39 1;
#X connect 37 0 10 0;
#X connect 38 0 37 1;
#X connect 39 0 37 0;
#X connect 40 0 0 0;
#X connect 41 0 40 1;
#X connect 42 0 40 0;
#X connect 43 0 1 0;
