#N canvas 14 81 835 641 10;
#X declare -path ./lib;
#X obj 57 -51 noise~;
#X obj 98 25 s~ signal;
#X obj 99 50 r~ signal;
#X obj 57 -29 *~;
#X obj 85 -27 tgl 15 0 empty empty empty 17 7 0 10 -262144 -1 -1 0
1;
#X obj 115 -28 *~;
#X obj 143 -26 tgl 15 0 empty empty empty 17 7 0 10 -262144 -1 -1 0
1;
#X obj 26 361 declare -path ./lib;
#X obj 501 42 graph_spectrum_2.5k;
#X obj 198 -27 *~;
#X obj 226 -25 tgl 15 0 empty empty empty 17 7 0 10 -262144 -1 -1 0
1;
#X obj 198 -49 adc~;
#X obj 500 -5 r~ signal;
#X obj 500 17 *~ 10;
#X obj 504 258 *~ 10;
#X floatatom 550 260 5 0 0 0 - - -, f 5;
#X obj 115 -50 phasor~ 440;
#X obj 146 282 s~ processed;
#X obj 504 237 r~ processed;
#X floatatom 543 18 5 0 0 0 - - -, f 5;
#X obj 585 14 r k;
#X obj 590 257 r k;
#X floatatom 451 -104 5 0 0 0 - - -, f 5;
#X obj 451 -85 s k;
#X obj 194 352 *~;
#X obj 234 351 tgl 15 0 empty empty empty 17 7 0 10 -262144 -1 -1 0
1;
#X obj 194 325 r~ processed;
#X obj 194 374 dac~;
#X floatatom 276 123 5 0 0 0 - - -, f 5;
#X obj 207 217 *~;
#X obj 241 219 tgl 15 0 empty empty empty 17 7 0 10 -262144 -1 -1 0
1;
#X obj 35 126 lop~ 60;
#X floatatom 118 128 5 0 0 0 - - -, f 5;
#X obj 35 219 *~;
#X obj 69 221 tgl 15 0 empty empty empty 17 7 0 10 -262144 -1 -1 0
1;
#X obj 35 148 lop~ 60;
#X obj 35 170 lop~ 60;
#X obj 35 192 lop~ 60;
#X obj 207 124 hip~ 120;
#X obj 207 146 hip~ 120;
#X obj 207 168 hip~ 120;
#X obj 207 190 hip~ 120;
#X floatatom 408 112 5 0 0 0 - - -, f 5;
#X obj 343 205 *~;
#X obj 377 207 tgl 15 0 empty empty empty 17 7 0 10 -262144 -1 -1 0
1;
#X obj 306 -8 loadbang;
#X msg 280 35 100;
#X msg 315 37 1000;
#X msg 358 36 2000;
#X obj 343 227 *~ 1;
#X floatatom 380 229 5 0 0 0 - - -, f 5;
#X obj 504 282 graph_spectrum_5k;
#X obj 343 112 lop~;
#X obj 343 134 lop~;
#X obj 343 156 lop~;
#X obj 343 178 lop~;
#X connect 0 0 3 0;
#X connect 2 0 31 0;
#X connect 2 0 38 0;
#X connect 3 0 1 0;
#X connect 4 0 3 1;
#X connect 5 0 1 0;
#X connect 6 0 5 1;
#X connect 9 0 1 0;
#X connect 10 0 9 1;
#X connect 11 0 9 0;
#X connect 12 0 13 0;
#X connect 13 0 8 0;
#X connect 14 0 51 0;
#X connect 15 0 14 1;
#X connect 16 0 5 0;
#X connect 18 0 14 0;
#X connect 19 0 13 1;
#X connect 20 0 19 0;
#X connect 21 0 15 0;
#X connect 22 0 23 0;
#X connect 24 0 27 0;
#X connect 24 0 27 1;
#X connect 25 0 24 1;
#X connect 26 0 24 0;
#X connect 28 0 38 1;
#X connect 28 0 39 1;
#X connect 28 0 40 1;
#X connect 28 0 41 1;
#X connect 29 0 52 0;
#X connect 30 0 29 1;
#X connect 31 0 35 0;
#X connect 32 0 31 1;
#X connect 32 0 35 1;
#X connect 32 0 36 1;
#X connect 32 0 37 1;
#X connect 33 0 17 0;
#X connect 34 0 33 1;
#X connect 35 0 36 0;
#X connect 36 0 37 0;
#X connect 37 0 33 0;
#X connect 38 0 39 0;
#X connect 39 0 40 0;
#X connect 40 0 41 0;
#X connect 41 0 29 0;
#X connect 42 0 52 1;
#X connect 42 0 53 1;
#X connect 42 0 54 1;
#X connect 42 0 55 1;
#X connect 43 0 49 0;
#X connect 44 0 43 1;
#X connect 45 0 47 0;
#X connect 45 0 48 0;
#X connect 45 0 46 0;
#X connect 46 0 32 0;
#X connect 47 0 28 0;
#X connect 48 0 42 0;
#X connect 49 0 17 0;
#X connect 50 0 49 1;
#X connect 52 0 53 0;
#X connect 53 0 54 0;
#X connect 54 0 55 0;
#X connect 55 0 43 0;
