#N canvas 122 149 781 650 10;
#X obj 76 58 notein;
#X floatatom 56 96 5 0 0 0 - - -, f 5;
#X floatatom 115 95 5 0 0 0 - - -, f 5;
#X obj 65 129 poly 1 1;
#X floatatom 82 170 5 0 0 0 - - -, f 5;
#X floatatom 131 170 5 0 0 0 - - -, f 5;
#X obj 95 195 pack;
#X obj 95 217 s key-data;
#X obj 264 54 r key-data;
#X obj 264 76 unpack;
#X floatatom 251 116 5 0 0 0 - - -, f 5;
#X obj 364 108 sel 0;
#X obj 357 135 bng 15 250 50 0 empty empty empty 17 7 0 10 -262144
-1 -1;
#X floatatom 429 126 5 0 0 0 - - -, f 5;
#X obj 429 145 / 127;
#X floatatom 429 167 5 0 0 0 - - -, f 5;
#X obj 427 201 pack;
#X obj 379 244 line~;
#X msg 357 155 0;
#X obj 357 198 pack;
#X floatatom 495 125 5 0 0 0 - - -, f 5;
#X floatatom 559 123 5 0 0 0 - - -, f 5;
#X text 495 84 A;
#X text 564 87 D;
#X obj 251 135 mtof;
#X floatatom 251 157 5 0 0 0 - - -, f 5;
#X obj 203 186 noise~;
#X obj 289 303 *~;
#X obj 292 391 dac~;
#X obj 309 348 *~ 5;
#X obj 251 176 pack f 1000;
#X obj 244 241 vcf~ 80;
#X obj 251 198 line~;
#X connect 0 0 1 0;
#X connect 0 1 2 0;
#X connect 1 0 3 0;
#X connect 2 0 3 1;
#X connect 3 1 4 0;
#X connect 3 2 5 0;
#X connect 4 0 6 0;
#X connect 5 0 6 1;
#X connect 6 0 7 0;
#X connect 8 0 9 0;
#X connect 9 0 10 0;
#X connect 9 1 11 0;
#X connect 10 0 24 0;
#X connect 11 0 12 0;
#X connect 11 1 13 0;
#X connect 12 0 18 0;
#X connect 13 0 14 0;
#X connect 14 0 15 0;
#X connect 15 0 16 0;
#X connect 16 0 17 0;
#X connect 17 0 27 1;
#X connect 18 0 19 0;
#X connect 19 0 17 0;
#X connect 20 0 19 1;
#X connect 21 0 16 1;
#X connect 24 0 25 0;
#X connect 25 0 30 0;
#X connect 26 0 31 0;
#X connect 27 0 29 0;
#X connect 29 0 28 0;
#X connect 29 0 28 1;
#X connect 30 0 32 0;
#X connect 31 0 27 0;
#X connect 32 0 31 1;
