#N canvas 1387 165 1042 581 10;
#N canvas 67 89 572 754 hidden 0;
#X obj 120 9 notein;
#X floatatom 109 40 5 0 0 0 - - -, f 5;
#X floatatom 147 41 5 0 0 0 - - -, f 5;
#X text 71 26 pitch;
#X text 167 26 velocity;
#X obj 119 350 dac~;
#X obj 120 67 pack;
#X floatatom 95 123 5 0 0 0 - - -, f 5;
#X floatatom 141 122 5 0 0 0 - - -, f 5;
#X floatatom 189 122 5 0 0 0 - - -, f 5;
#X obj 115 148 pack f f f;
#X text 50 105 voice no.;
#X obj 120 88 poly 8 1;
#X obj 115 170 route 1 2 3 4 5 6 7 8, f 22;
#X obj 128 321 /~ 8;
#X obj 102 206 voice;
#X obj 127 296 catch~ main-out;
#X obj 194 265 voice;
#X obj 110 226 voice;
#X obj 120 247 voice;
#X obj 128 267 voice;
#X obj 169 205 voice;
#X obj 176 225 voice;
#X obj 187 245 voice;
#X connect 0 0 1 0;
#X connect 0 1 2 0;
#X connect 1 0 6 0;
#X connect 2 0 6 1;
#X connect 6 0 12 0;
#X connect 7 0 10 0;
#X connect 8 0 10 1;
#X connect 9 0 10 2;
#X connect 10 0 13 0;
#X connect 12 0 7 0;
#X connect 12 1 8 0;
#X connect 12 2 9 0;
#X connect 13 0 15 0;
#X connect 13 1 18 0;
#X connect 13 2 19 0;
#X connect 13 3 20 0;
#X connect 13 4 21 0;
#X connect 13 5 22 0;
#X connect 13 6 23 0;
#X connect 13 7 17 0;
#X connect 14 0 5 0;
#X connect 14 0 5 1;
#X connect 16 0 14 0;
#X restore 24 133 pd hidden;
#N canvas 1086 276 664 613 presets 0;
#X msg 14 128 \; h1 1 \; h2 0.9 \; h3 0.8 \; h4 0.7 \; h5 0.6 \; h6
0.5 \; h7 0.4 \; h8 0.3 \;;
#X msg 77 128 \; h1 0.3 \; h2 0.4 \; h3 0.5 \; h4 0.6 \; h5 0.7 \;
h6 0.8 \; h7 0.9 \; h8 1 \;;
#X msg 138 128 \; h1 1 \; h2 0 \; h3 1 \; h4 0 \; h5 1 \; h6 0 \; h7
1 \; h8 0 \;;
#X msg 187 128 \; h1 0 \; h2 1 \; h3 1 \; h4 1 \; h5 1 \; h6 1 \; h7
1 \; h8 1 \;;
#X obj 13 20 bng 15 250 50 0 empty empty empty 17 7 0 10 -262144 -1
-1;
#X obj 14 42 bng 15 250 50 0 empty empty empty 17 7 0 10 -262144 -1
-1;
#X obj 14 65 bng 15 250 50 0 empty empty empty 17 7 0 10 -262144 -1
-1;
#X obj 15 87 bng 15 250 50 0 empty empty empty 17 7 0 10 -262144 -1
-1;
#X text 39 16 decaying spectrum;
#X text 39 40 bright;
#X text 37 63 clarinet;
#X text 38 86 missing fundamental;
#X connect 4 0 0 0;
#X connect 5 0 1 0;
#X connect 6 0 2 0;
#X connect 7 0 3 0;
#X coords 0 -1 1 1 150 100 1 10 10;
#X restore 19 20 pd presets;
#N canvas 793 433 1584 895 sliders 0;
#X obj 211 127 vsl 15 128 0 1 0 0 empty empty empty 0 -9 0 10 -262144
-1 -1 12700 1;
#X floatatom 211 260 5 0 0 0 - - -, f 5;
#X obj 246 126 vsl 15 128 0 1 0 0 empty empty empty 0 -9 0 10 -262144
-1 -1 0 1;
#X floatatom 246 259 5 0 0 0 - - -, f 5;
#X obj 282 126 vsl 15 128 0 1 0 0 empty empty empty 0 -9 0 10 -262144
-1 -1 12700 1;
#X floatatom 282 259 5 0 0 0 - - -, f 5;
#X obj 318 126 vsl 15 128 0 1 0 0 empty empty empty 0 -9 0 10 -262144
-1 -1 0 1;
#X floatatom 318 259 5 0 0 0 - - -, f 5;
#X obj 354 126 vsl 15 128 0 1 0 0 empty empty empty 0 -9 0 10 -262144
-1 -1 12700 1;
#X floatatom 354 259 5 0 0 0 - - -, f 5;
#X obj 389 125 vsl 15 128 0 1 0 0 empty empty empty 0 -9 0 10 -262144
-1 -1 0 1;
#X floatatom 389 258 5 0 0 0 - - -, f 5;
#X obj 425 125 vsl 15 128 0 1 0 0 empty empty empty 0 -9 0 10 -262144
-1 -1 12700 1;
#X floatatom 425 258 5 0 0 0 - - -, f 5;
#X obj 461 125 vsl 15 128 0 1 0 0 empty empty empty 0 -9 0 10 -262144
-1 -1 0 1;
#X floatatom 461 258 5 0 0 0 - - -, f 5;
#X obj 211 278 s h1;
#X obj 246 278 s h2;
#X obj 282 278 s h3;
#X obj 318 277 s h4;
#X obj 354 277 s h5;
#X obj 389 277 s h6;
#X obj 425 277 s h7;
#X obj 461 276 s h8;
#X obj 58 44 ctlin 14;
#X obj 58 64 / 127;
#X obj 116 62 / 127;
#X obj 172 62 / 127;
#X obj 231 60 / 127;
#X obj 299 60 / 127;
#X obj 358 58 / 127;
#X obj 414 58 / 127;
#X obj 472 56 / 127;
#X obj 116 42 ctlin 15;
#X obj 172 42 ctlin 16;
#X obj 231 40 ctlin 17;
#X obj 299 40 ctlin 18;
#X obj 358 38 ctlin 19;
#X obj 414 38 ctlin 20;
#X obj 472 36 ctlin 21;
#X obj 72 -3 r h1;
#X msg 72 16 set \$1;
#X msg 120 15 set \$1;
#X msg 168 14 set \$1;
#X msg 217 13 set \$1;
#X msg 277 12 set \$1;
#X msg 325 11 set \$1;
#X msg 373 9 set \$1;
#X msg 422 8 set \$1;
#X obj 120 -4 r h2;
#X obj 168 -5 r h3;
#X obj 217 -6 r h4;
#X obj 277 -7 r h5;
#X obj 325 -8 r h6;
#X obj 373 -10 r h7;
#X obj 422 -11 r h8;
#N canvas 67 89 450 300 explaining 0;
#X floatatom 28 282 5 0 0 0 - - -, f 5;
#X obj 28 358 print;
#X msg 26 318 dolphin \$1;
#X obj 198 301 vsl 15 128 0 127 0 0 empty empty empty 0 -9 0 10 -262144
-1 -1 0 1;
#X obj 198 569 send dolphin;
#X obj 166 212 receive dolphin;
#X msg 166 251 set \$1;
#X connect 0 0 2 0;
#X connect 2 0 1 0;
#X connect 3 0 4 0;
#X connect 5 0 6 0;
#X connect 6 0 3 0;
#X restore 35 160 pd explaining \$1 and set;
#X connect 0 0 1 0;
#X connect 1 0 16 0;
#X connect 2 0 3 0;
#X connect 3 0 17 0;
#X connect 4 0 5 0;
#X connect 5 0 18 0;
#X connect 6 0 7 0;
#X connect 7 0 19 0;
#X connect 8 0 9 0;
#X connect 9 0 20 0;
#X connect 10 0 11 0;
#X connect 11 0 21 0;
#X connect 12 0 13 0;
#X connect 13 0 22 0;
#X connect 14 0 15 0;
#X connect 15 0 23 0;
#X connect 24 0 25 0;
#X connect 25 0 0 0;
#X connect 26 0 2 0;
#X connect 27 0 4 0;
#X connect 28 0 6 0;
#X connect 29 0 8 0;
#X connect 30 0 10 0;
#X connect 31 0 12 0;
#X connect 32 0 14 0;
#X connect 33 0 26 0;
#X connect 34 0 27 0;
#X connect 35 0 28 0;
#X connect 36 0 29 0;
#X connect 37 0 30 0;
#X connect 38 0 31 0;
#X connect 39 0 32 0;
#X connect 40 0 41 0;
#X connect 41 0 0 0;
#X connect 42 0 2 0;
#X connect 43 0 4 0;
#X connect 44 0 6 0;
#X connect 45 0 8 0;
#X connect 46 0 10 0;
#X connect 47 0 12 0;
#X connect 48 0 14 0;
#X connect 49 0 42 0;
#X connect 50 0 43 0;
#X connect 51 0 44 0;
#X connect 52 0 45 0;
#X connect 53 0 46 0;
#X connect 54 0 47 0;
#X connect 55 0 48 0;
#X coords 0 -1 1 1 300 180 1 200 100;
#X restore 194 10 pd sliders;
#X floatatom 25 196 5 0 0 0 - - -, f 5;
#X floatatom 68 198 5 0 0 0 - - -, f 5;
#X floatatom 110 199 5 0 0 0 - - -, f 5;
#X floatatom 149 198 5 0 0 0 - - -, f 5;
#X obj 25 215 s A;
#X obj 68 217 s D;
#X obj 110 217 s S;
#X obj 149 217 s R;
#X obj 68 156 bng 15 250 50 0 empty empty empty 17 7 0 10 -262144 -1
-1;
#X connect 3 0 7 0;
#X connect 4 0 8 0;
#X connect 5 0 9 0;
#X connect 6 0 10 0;
#X connect 11 0 3 0;
#X connect 11 0 4 0;
#X connect 11 0 5 0;
#X connect 11 0 6 0;
