#N canvas 196 120 500 451 10;
#X declare -path ./samples;
#N canvas 0 22 450 278 (subpatch) 0;
#X array mysample 24747 float 2;
#X coords 0 1 24747 -1 200 140 1 0 0;
#X restore 274 24 graph;
#X obj 38 297 soundfiler;
#X floatatom 38 319 10 0 0 0 - - -, f 10;
#X obj 38 338 t f f;
#X floatatom 65 383 10 0 0 0 - - -, f 10;
#X obj 65 361 / 44.1;
#X text 102 318 samples;
#X text 132 384 miliseconds;
#X text 107 362 sample rate / 1000;
#X obj 65 402 print duration;
#X obj 38 424 print size;
#X obj 332 172 declare -path ./samples;
#X msg 47 267 read -resize ./samples/harp-A69.wav mysample;
#X symbolatom 38 179 10 0 0 0 - - -, f 10;
#X msg 38 218 read -resize \$1.wav mysample;
#X msg 38 10 bell-84;
#X obj 38 159 symbol;
#X obj 45 197 print sample;
#X msg 46 30 fl-g5;
#X msg 55 50 gtr-57;
#X text 93 11 bell;
#X text 88 30 flute;
#X text 103 52 guitar;
#X msg 66 71 snare;
#X text 108 71 snare drum;
#X msg 78 92 kick;
#X text 115 92 kick drum;
#X msg 84 113 hihat;
#X text 124 113 hi hat cymbals;
#X connect 1 0 2 0;
#X connect 2 0 3 0;
#X connect 3 0 10 0;
#X connect 3 1 5 0;
#X connect 4 0 9 0;
#X connect 5 0 4 0;
#X connect 12 0 1 0;
#X connect 13 0 14 0;
#X connect 13 0 17 0;
#X connect 14 0 1 0;
#X connect 15 0 16 0;
#X connect 16 0 13 0;
#X connect 18 0 16 0;
#X connect 19 0 16 0;
#X connect 23 0 16 0;
#X connect 25 0 16 0;
#X connect 27 0 16 0;
