#N canvas 87 41 615 687 10;
#X declare -path ./samples;
#N canvas 0 22 450 278 (subpatch) 0;
#X array mysample 405054 float 2;
#X coords 0 1 405054 -1 200 140 1 0 0;
#X restore 10 27 graph;
#X obj 451 57 declare -path ./samples;
#N canvas 0 22 313 455 load-sample 0;
#X obj 38 243 soundfiler;
#X floatatom 38 265 10 0 0 0 - - -, f 10;
#X obj 38 284 t f f;
#X floatatom 65 329 10 0 0 0 - - -, f 10;
#X obj 65 307 / 44.1;
#X text 102 264 samples;
#X text 132 330 miliseconds;
#X text 107 308 sample rate / 1000;
#X symbolatom 38 179 10 0 0 0 - - -, f 10;
#X msg 38 218 read -resize \$1.wav mysample;
#X msg 38 10 bell-84;
#X obj 38 159 symbol;
#X obj 45 197 print sample;
#X msg 46 30 fl-g5;
#X msg 55 50 gtr-57;
#X text 93 11 bell;
#X text 88 30 flute;
#X text 103 52 guitar;
#X msg 66 71 snare;
#X text 108 71 snare drum;
#X msg 78 92 kick;
#X text 115 92 kick drum;
#X msg 84 113 hihat;
#X text 124 113 hi hat cymbals;
#X obj 65 348 s duration;
#X obj 38 370 s size;
#X text 86 374 samples;
#X connect 0 0 1 0;
#X connect 1 0 2 0;
#X connect 2 0 25 0;
#X connect 2 1 4 0;
#X connect 3 0 24 0;
#X connect 4 0 3 0;
#X connect 8 0 9 0;
#X connect 8 0 12 0;
#X connect 9 0 0 0;
#X connect 10 0 11 0;
#X connect 11 0 8 0;
#X connect 13 0 11 0;
#X connect 14 0 11 0;
#X connect 18 0 11 0;
#X connect 20 0 11 0;
#X connect 22 0 11 0;
#X restore 505 35 pd load-sample;
#X obj 22 267 bng 15 250 50 0 empty empty empty 17 7 0 10 -262144 -1
-1;
#X obj 43 331 r duration;
#X obj 22 287 t b b, f 16;
#X obj 22 371 pack;
#X msg 115 368 0;
#X obj 70 424 line~;
#X obj 70 513 *~;
#X obj 85 489 - 3;
#X obj 70 535 +~ 1;
#X obj 62 589 dac~;
#X msg 22 311 1, f 2;
#X obj 85 446 r size;
#X obj 462 448 mtof;
#X obj 462 510 t b f;
#X msg 462 531 1;
#X obj 462 552 /;
#X obj 462 489 / 440;
#X floatatom 462 429 5 0 0 0 - - -, f 5;
#X obj 462 573 t b f;
#X floatatom 462 470 5 0 0 0 - - -, f 5;
#X obj 510 488 mtof;
#X floatatom 510 468 5 0 0 0 - - -, f 5;
#X obj 70 557 tabread4~ mysample;
#X floatatom 186 167 8 0 0 0 - size -, f 8;
#X floatatom 85 469 8 0 0 0 - - -, f 8;
#X floatatom 43 353 5 0 0 0 - - -, f 5;
#X obj 261 254 bng 15 250 50 0 empty empty empty 17 7 0 10 -262144
-1 -1;
#X obj 282 323 r duration;
#X obj 261 274 t b b, f 18;
#X obj 261 456 pack;
#X msg 366 410 0, f 2;
#X obj 289 498 line~;
#X obj 306 572 *~;
#X obj 331 541 - 3;
#X obj 306 594 +~ 1;
#X obj 298 648 dac~;
#X msg 261 299 1, f 2;
#X obj 331 498 r size;
#X obj 306 616 tabread4~ mysample;
#X floatatom 331 521 8 0 0 0 - - -, f 8;
#X floatatom 282 345 5 0 0 0 - - -, f 5;
#X floatatom 462 290 5 0 0 0 - - -, f 5;
#X obj 295 406 t b f;
#X obj 282 433 * 1;
#X msg 430 255 0.25;
#X msg 460 255 0.5;
#X msg 489 255 1;
#X msg 518 255 2;
#X msg 549 255 4;
#X obj 462 308 t b f;
#X floatatom 295 387 5 0 0 0 - - -, f 5;
#X obj 295 365 r multiple;
#X obj 489 329 s multiple;
#X obj 462 349 s play;
#X text 430 230 halving \, doubling:;
#X obj 261 231 r play;
#X obj 489 594 s multiple;
#X obj 462 614 s play;
#X text 507 437 reference pitch:, f 11;
#X text 459 398 target pitch:, f 7;
#X text 235 210 |----------------- change pitch and duration --------------|
;
#X text 15 231 play sample as is:, f 11;
#X connect 3 0 5 0;
#X connect 4 0 28 0;
#X connect 5 0 13 0;
#X connect 5 1 7 0;
#X connect 6 0 8 0;
#X connect 7 0 8 0;
#X connect 8 0 9 0;
#X connect 9 0 11 0;
#X connect 10 0 9 1;
#X connect 11 0 25 0;
#X connect 13 0 6 0;
#X connect 14 0 27 0;
#X connect 15 0 22 0;
#X connect 16 0 17 0;
#X connect 16 1 18 1;
#X connect 17 0 18 0;
#X connect 18 0 21 0;
#X connect 19 0 16 0;
#X connect 20 0 15 0;
#X connect 21 0 60 0;
#X connect 21 1 59 0;
#X connect 22 0 19 0;
#X connect 23 0 19 1;
#X connect 24 0 23 0;
#X connect 25 0 12 0;
#X connect 25 0 12 1;
#X connect 27 0 10 0;
#X connect 28 0 6 1;
#X connect 29 0 31 0;
#X connect 30 0 43 0;
#X connect 31 0 39 0;
#X connect 31 1 33 0;
#X connect 32 0 34 0;
#X connect 33 0 34 0;
#X connect 34 0 35 0;
#X connect 35 0 37 0;
#X connect 36 0 35 1;
#X connect 37 0 41 0;
#X connect 39 0 32 0;
#X connect 40 0 42 0;
#X connect 41 0 38 0;
#X connect 41 0 38 1;
#X connect 42 0 36 0;
#X connect 43 0 46 0;
#X connect 44 0 52 0;
#X connect 45 0 46 0;
#X connect 45 1 46 1;
#X connect 46 0 32 1;
#X connect 47 0 44 0;
#X connect 48 0 44 0;
#X connect 49 0 44 0;
#X connect 50 0 44 0;
#X connect 51 0 44 0;
#X connect 52 0 56 0;
#X connect 52 1 55 0;
#X connect 53 0 45 0;
#X connect 54 0 53 0;
#X connect 58 0 29 0;
