#N canvas 246 23 543 555 10;
#N canvas 0 22 450 278 (subpatch) 0;
#X array mysample 45505 float 2;
#X coords 0 1 45505 -1 200 140 1;
#X restore 273 99 graph;
#X obj 35 81 soundfiler;
#X floatatom 35 103 8 0 0 0 - - -, f 8;
#X msg 36 22 read -resize ./samples/gtr-57.wav mysample;
#X msg 51 52 read -resize ./samples/fl-g5.wav mysample;
#X text 101 103 samples long;
#X obj 35 122 t f f;
#X obj 62 144 / 44.1;
#X floatatom 62 166 5 0 0 0 - - -, f 5;
#X obj 62 185 s msec;
#X obj 35 208 s samples;
#X obj 56 257 bng 15 250 50 0 empty empty empty 17 7 0 10 -262144 -1
-1;
#X obj 56 277 t b b, f 14;
#X obj 56 371 pack f f;
#X obj 101 306 r msec;
#X floatatom 101 328 5 0 0 0 - - -, f 5;
#X obj 95 410 line~;
#X obj 95 432 *~;
#X floatatom 164 435 10 0 0 0 - - -, f 10;
#X obj 95 490 tabread4~ mysample;
#X obj 84 526 dac~;
#X obj 164 413 r samples;
#X obj 95 454 +~ 1;
#X obj 164 454 - 3;
#N canvas 0 22 450 300 single-message 0;
#X obj 50 98 tabread4~ mysample;
#X obj 50 55 line~;
#X msg 50 33 0 \, 45505 1031.86;
#X obj 39 138 dac~;
#X connect 0 0 3 0;
#X connect 0 0 3 1;
#X connect 1 0 0 0;
#X connect 2 0 1 0;
#X restore 369 8 pd single-message;
#N canvas 0 22 450 300 message-formatting 0;
#X obj 27 14 bng 15 250 50 0 empty empty empty 17 7 0 10 -262144 -1
-1;
#X obj 27 34 t b b, f 14;
#X msg 130 99 0;
#X msg 27 56 1;
#X obj 27 104 pack f f;
#X obj 72 63 r msec;
#X floatatom 72 85 5 0 0 0 - - -, f 5;
#X obj 66 143 line~;
#X obj 66 165 *~;
#X floatatom 135 168 5 0 0 0 - - -, f 5;
#X obj 66 223 tabread4~ mysample;
#X obj 55 259 dac~;
#X obj 135 146 r samples;
#X obj 66 187 +~ 1;
#X obj 135 187 - 3;
#X connect 0 0 1 0;
#X connect 1 0 3 0;
#X connect 1 1 2 0;
#X connect 2 0 7 0;
#X connect 3 0 4 0;
#X connect 4 0 7 0;
#X connect 5 0 6 0;
#X connect 6 0 4 1;
#X connect 7 0 8 0;
#X connect 8 0 13 0;
#X connect 9 0 14 0;
#X connect 10 0 11 0;
#X connect 10 0 11 1;
#X connect 12 0 9 0;
#X connect 13 0 10 0;
#X connect 14 0 8 1;
#X restore 346 30 pd message-formatting;
#N canvas 0 22 450 300 reverse 0;
#X obj 23 8 bng 15 250 50 0 empty empty empty 17 7 0 10 -262144 -1
-1;
#X obj 23 28 t b b, f 14;
#X obj 23 122 pack f f;
#X obj 68 57 r msec;
#X floatatom 68 79 5 0 0 0 - - -, f 5;
#X obj 62 161 line~;
#X obj 62 183 *~;
#X floatatom 131 186 5 0 0 0 - - -, f 5;
#X obj 62 241 tabread4~ mysample;
#X obj 51 277 dac~;
#X obj 131 164 r samples;
#X obj 62 205 +~ 1;
#X obj 131 205 - 3;
#X msg 126 117 1;
#X msg 23 50 0;
#X connect 0 0 1 0;
#X connect 1 0 14 0;
#X connect 1 1 13 0;
#X connect 2 0 5 0;
#X connect 3 0 4 0;
#X connect 4 0 2 1;
#X connect 5 0 6 0;
#X connect 6 0 11 0;
#X connect 7 0 12 0;
#X connect 8 0 9 0;
#X connect 8 0 9 1;
#X connect 10 0 7 0;
#X connect 11 0 8 0;
#X connect 12 0 6 1;
#X connect 13 0 5 0;
#X connect 14 0 2 0;
#X restore 413 51 pd reverse;
#X msg 56 299 1;
#X msg 159 366 0;
#X obj 101 347 *;
#X floatatom 164 320 5 0 0 0 - - -, f 5;
#X obj 164 339 t b f;
#X obj 164 297 r factor;
#X floatatom 326 454 5 0 0 0 - - -, f 5;
#X obj 326 473 t b f;
#X obj 353 496 s factor;
#X obj 326 517 s play;
#X obj 56 234 r play;
#X floatatom 360 279 5 0 0 0 - - -, f 5;
#X obj 360 298 mtof;
#X floatatom 360 320 5 0 0 0 - - -, f 5;
#X text 394 321 Hz;
#X text 358 249 reference pitch, f 9;
#X floatatom 298 278 5 0 0 0 - - -, f 5;
#X obj 298 297 mtof;
#X floatatom 298 319 5 0 0 0 - - -, f 5;
#X obj 326 346 /;
#X floatatom 326 369 5 0 0 0 - - -, f 5;
#X obj 326 387 t b f;
#X msg 326 409 1;
#X obj 326 431 /, f 5;
#X text 293 251 target pitch, f 9;
#X connect 1 0 2 0;
#X connect 2 0 6 0;
#X connect 3 0 1 0;
#X connect 4 0 1 0;
#X connect 6 0 10 0;
#X connect 6 1 7 0;
#X connect 7 0 8 0;
#X connect 8 0 9 0;
#X connect 11 0 12 0;
#X connect 12 0 27 0;
#X connect 12 1 28 0;
#X connect 13 0 16 0;
#X connect 14 0 15 0;
#X connect 15 0 29 0;
#X connect 16 0 17 0;
#X connect 17 0 22 0;
#X connect 18 0 23 0;
#X connect 19 0 20 0;
#X connect 19 0 20 1;
#X connect 21 0 18 0;
#X connect 22 0 19 0;
#X connect 23 0 17 1;
#X connect 27 0 13 0;
#X connect 28 0 16 0;
#X connect 29 0 13 1;
#X connect 30 0 31 0;
#X connect 31 0 29 0;
#X connect 31 1 29 1;
#X connect 32 0 30 0;
#X connect 33 0 34 0;
#X connect 34 0 36 0;
#X connect 34 1 35 0;
#X connect 37 0 11 0;
#X connect 38 0 39 0;
#X connect 39 0 40 0;
#X connect 40 0 46 1;
#X connect 43 0 44 0;
#X connect 44 0 45 0;
#X connect 45 0 46 0;
#X connect 46 0 47 0;
#X connect 47 0 48 0;
#X connect 48 0 49 0;
#X connect 48 1 50 1;
#X connect 49 0 50 0;
#X connect 50 0 33 0;
