#N canvas 176 23 652 508 10;
#X declare -path ./samples;
#X obj 50 55 soundfiler;
#N canvas 0 22 450 278 (subpatch) 0;
#X array array1 306290 float 2;
#X coords 0 1 306290 -1 200 140 1;
#X restore 206 67 graph;
#X obj 319 8 declare -path ./samples;
#X msg 21 7 read -resize bell-84.wav array1;
#X floatatom 50 77 10 0 0 0 - - -, f 10;
#X obj 50 96 t f f;
#X obj 77 119 / 44.1;
#X floatatom 77 141 10 0 0 0 - - -, f 10;
#X floatatom 50 184 10 0 0 0 - - -, f 10;
#X obj 77 160 s dur-ms;
#X obj 50 203 s dur-s;
#X obj 48 323 line~;
#X obj 48 345 tabread4~ array1;
#X obj 40 374 dac~;
#X msg 52 28 read -resize fl-g5.wav array1;
#X msg 43 285 1 \, 306288 6945.35;
#X msg 231 319 0 \, 1 \$1;
#X obj 231 341 line~;
#X obj 254 378 *~;
#X obj 254 400 +~ 1;
#X obj 293 332 r dur-s;
#X obj 293 354 - 3;
#X obj 231 295 f;
#X obj 287 220 r dur-ms;
#X obj 231 245 bng 15 250 50 0 empty empty empty 17 7 0 10 -262144
-1 -1;
#X obj 245 449 dac~;
#X obj 254 422 tabread4~ array1;
#X floatatom 287 242 5 0 0 0 - - -, f 5;
#X obj 287 261 *;
#X floatatom 346 252 10 0 0 0 - - -, f 10;
#X obj 346 271 t b f;
#X msg 456 315 84;
#X obj 456 365 /, f 7;
#X obj 456 289 t b f;
#X floatatom 456 269 5 0 0 0 - - -, f 5;
#X floatatom 456 387 5 0 0 0 - - -, f 5;
#X obj 456 406 t b f;
#X obj 456 428 s play;
#X obj 502 405 s factor;
#X obj 348 227 r factor;
#X obj 217 222 r play;
#X obj 456 337 mtof;
#X obj 493 338 mtof;
#X msg 492 98 symbol cat;
#X obj 446 149 pack s s;
#X obj 437 203 f \$1;
#X obj 438 180 bng 15 250 50 0 empty empty empty 17 7 0 10 -262144
-1 -1;
#X obj 486 180 bng 15 250 50 0 empty empty empty 17 7 0 10 -262144
-1 -1;
#X obj 485 203 symbol \$1;
#X connect 0 0 4 0;
#X connect 3 0 0 0;
#X connect 4 0 5 0;
#X connect 5 0 8 0;
#X connect 5 1 6 0;
#X connect 6 0 7 0;
#X connect 7 0 9 0;
#X connect 8 0 10 0;
#X connect 11 0 12 0;
#X connect 12 0 13 0;
#X connect 12 0 13 1;
#X connect 14 0 0 0;
#X connect 15 0 11 0;
#X connect 16 0 17 0;
#X connect 17 0 18 0;
#X connect 18 0 19 0;
#X connect 19 0 26 0;
#X connect 20 0 21 0;
#X connect 21 0 18 1;
#X connect 22 0 16 0;
#X connect 23 0 27 0;
#X connect 24 0 22 0;
#X connect 26 0 25 0;
#X connect 26 0 25 1;
#X connect 27 0 28 0;
#X connect 28 0 22 1;
#X connect 29 0 30 0;
#X connect 30 0 28 0;
#X connect 30 1 28 1;
#X connect 31 0 41 0;
#X connect 32 0 35 0;
#X connect 33 0 31 0;
#X connect 33 1 42 0;
#X connect 34 0 33 0;
#X connect 35 0 36 0;
#X connect 36 0 37 0;
#X connect 36 1 38 0;
#X connect 39 0 29 0;
#X connect 40 0 24 0;
#X connect 41 0 32 0;
#X connect 42 0 32 1;
#X connect 43 0 44 1;
#X connect 46 0 45 0;
#X connect 47 0 48 0;
